<?xml version="1.0" standalone="no"?>
<!DOCTYPE svg PUBLIC "-//W3C//DTD SVG 20010904//EN"
 "http://www.w3.org/TR/2001/REC-SVG-20010904/DTD/svg10.dtd">
<svg version="1.0" xmlns="http://www.w3.org/2000/svg"
 width="2000.000000pt" height="2000.000000pt" viewBox="0 0 2000.000000 2000.000000"
 preserveAspectRatio="xMidYMid meet">

<g transform="translate(0.000000,2000.000000) scale(0.100000,-0.100000)"
fill="#000000" stroke="none">
<path d="M11612 11080 c-5 -25 -10 -35 -11 -22 -1 19 -7 22 -41 22 -33 0 -40
-3 -40 -20 0 -18 -7 -20 -76 -20 -67 0 -76 -2 -81 -20 -5 -18 -14 -20 -84 -20
-46 0 -79 -4 -79 -10 0 -6 33 -10 80 -10 54 0 80 -4 80 -12 0 -8 -32 -9 -120
-5 l-120 7 0 -25 c0 -14 -4 -25 -10 -25 -5 0 -10 -5 -10 -11 0 -6 -7 -17 -15
-25 -12 -12 -15 -12 -15 -2 0 10 -3 9 -10 -2 -6 -9 -10 -10 -10 -3 0 8 -9 9
-30 3 -33 -9 -36 -10 -49 -10 -4 0 -11 -26 -14 -58 -11 -100 -29 -122 -42 -49
l-8 42 -12 -45 c-8 -27 -13 -36 -14 -22 -1 19 -6 22 -41 22 l-40 0 0 -43 c0
-48 -22 -77 -58 -77 -14 0 -22 7 -24 22 -3 21 -3 21 -22 3 -18 -18 -18 -19 0
-25 14 -5 10 -9 -19 -14 -42 -8 -45 -13 -19 -32 16 -13 16 -13 0 -14 -10 0
-18 -4 -18 -10 0 -5 -9 -10 -20 -10 -13 0 -20 -7 -20 -20 0 -26 -32 -89 -37
-74 -2 7 -19 -3 -39 -22 -20 -18 -33 -37 -30 -42 3 -5 -9 -24 -26 -42 -26 -30
-31 -32 -40 -17 -12 23 -28 21 -28 -3 0 -17 -7 -20 -40 -20 -33 0 -40 -3 -40
-20 0 -17 -7 -20 -40 -20 -22 0 -40 -4 -40 -10 0 -5 18 -10 40 -10 22 0 40 -4
40 -10 0 -5 -4 -10 -10 -10 -5 0 -10 -11 -10 -25 0 -21 -5 -25 -30 -25 -25 0
-30 4 -30 25 0 23 -4 25 -40 25 -33 0 -40 -3 -40 -20 0 -17 -7 -20 -49 -20
-54 0 -61 -7 -53 -57 4 -31 3 -33 -27 -33 -21 0 -31 -5 -31 -15 0 -8 -7 -15
-15 -15 -8 0 -15 6 -15 14 0 18 -24 23 -83 18 -39 -3 -48 -7 -44 -21 3 -13 -4
-16 -42 -14 -25 1 -63 2 -83 2 -26 1 -38 6 -41 19 -2 9 -2 -2 1 -25 l4 -43
-41 0 c-30 0 -41 -4 -41 -15 0 -11 -11 -15 -40 -15 -22 0 -40 -4 -40 -10 0 -6
-33 -10 -80 -10 -64 0 -80 -3 -80 -15 0 -12 -15 -15 -79 -15 -79 0 -80 0 -84
28 -3 19 -4 14 -6 -15 -1 -31 -5 -43 -16 -43 -11 0 -15 11 -15 40 0 22 -4 40
-10 40 -5 0 -10 -18 -10 -40 0 -40 -15 -55 -23 -22 -2 9 -3 5 -1 -10 3 -26 1
-28 -36 -28 -29 0 -39 -4 -42 -17 -3 -16 -6 -15 -26 5 -12 12 -20 27 -17 32 3
6 1 18 -4 27 -9 16 -10 16 -11 -4 0 -13 -4 -23 -10 -23 -5 0 -10 -18 -10 -40
l0 -40 -40 0 c-29 0 -40 4 -40 15 0 11 -11 15 -40 15 -29 0 -40 -4 -40 -15 0
-8 -4 -15 -10 -15 -5 0 -10 -18 -10 -40 0 -22 -4 -40 -10 -40 -5 0 -10 18 -10
40 0 29 -4 40 -15 40 -11 0 -15 -12 -17 -42 -1 -37 -2 -39 -5 -10 -4 30 -7 32
-44 32 -37 0 -39 -2 -39 -30 0 -16 -4 -30 -10 -30 -5 0 -10 -18 -10 -40 0 -22
-4 -40 -10 -40 -5 0 -10 18 -10 40 0 29 -4 40 -15 40 -11 0 -15 -12 -17 -42
-1 -37 -2 -39 -5 -10 -4 30 -7 32 -44 32 -35 0 -39 3 -39 25 0 23 -4 25 -40
25 -29 0 -40 -4 -40 -15 0 -8 -5 -15 -11 -15 -7 0 -10 -18 -9 -47 2 -27 2 -57
1 -68 l-2 -20 -9 20 c-5 11 -9 41 -9 68 -1 35 -5 47 -16 47 -11 0 -15 -11 -15
-40 l0 -40 -45 0 c-33 0 -45 4 -45 15 0 12 -16 15 -80 15 -64 0 -80 -3 -80
-15 0 -11 11 -15 40 -15 22 0 40 -4 40 -10 0 -5 -18 -10 -40 -10 -22 0 -40 5
-40 10 0 6 -18 10 -40 10 l-40 0 0 -50 0 -50 -40 0 c-22 0 -40 5 -40 10 0 6
-17 10 -38 10 l-39 0 -9 -77 c-9 -75 -10 -78 -36 -81 -25 -3 -27 0 -31 40 l-4
43 -1 -42 c-1 -24 -6 -43 -12 -43 -6 0 -10 -33 -10 -79 0 -67 -3 -80 -17 -84
-14 -4 -13 -5 4 -6 12 0 23 -4 26 -8 2 -5 2 -2 1 5 -2 6 4 12 12 12 10 0 14
-6 10 -15 -4 -11 5 -21 28 -31 18 -9 33 -22 33 -29 0 -7 -35 6 -85 33 -47 25
-82 41 -79 35 4 -6 30 -23 59 -38 61 -31 72 -37 154 -88 40 -24 69 -35 80 -31
14 4 15 3 6 -4 -10 -7 6 -21 60 -54 40 -25 89 -54 108 -65 19 -10 46 -26 60
-34 14 -9 97 -60 185 -114 456 -280 1355 -866 1432 -934 6 -5 36 -26 67 -46
58 -37 397 -279 451 -322 47 -37 47 -37 99 -72 115 -79 623 -467 792 -605 61
-50 126 -102 144 -116 18 -14 38 -30 44 -35 6 -6 31 -26 56 -45 25 -19 50 -40
55 -46 6 -5 35 -30 65 -54 47 -38 195 -165 210 -180 3 -3 21 -18 40 -34 19
-15 53 -45 75 -65 22 -20 69 -61 105 -90 36 -30 89 -77 119 -105 29 -28 59
-55 65 -61 166 -147 667 -638 790 -775 27 -30 75 -82 105 -115 31 -33 81 -89
111 -125 30 -36 69 -81 86 -100 49 -53 119 -139 166 -200 23 -30 62 -80 88
-110 26 -30 55 -69 65 -87 27 -47 44 -49 61 -8 48 116 174 417 214 515 43 104
141 334 265 625 26 61 62 144 80 185 18 41 96 220 174 397 128 294 194 442
256 578 303 667 526 1146 733 1575 38 80 101 210 140 290 38 80 129 267 202
415 251 512 384 790 395 824 4 13 20 46 36 73 16 27 29 51 29 54 0 6 36 85
103 224 28 58 50 109 49 114 -2 5 1 12 5 15 4 3 23 38 41 76 18 39 42 88 53
110 10 22 19 45 19 51 0 6 8 19 19 28 10 9 21 32 24 52 5 32 39 88 49 79 2 -2
4 5 5 16 1 11 9 34 17 51 9 17 16 39 16 49 0 28 11 49 26 49 10 0 14 12 14 39
0 22 6 42 13 45 10 5 10 7 0 12 -7 3 -13 19 -13 35 l0 29 -80 0 -80 0 0 -40 0
-40 -40 0 -40 0 0 -50 0 -50 -40 0 -40 0 0 50 0 50 -41 0 -41 0 3 -42 4 -43
-42 3 c-37 4 -42 1 -45 -20 l-3 -23 -20 23 c-16 18 -30 22 -77 22 -51 0 -58
-2 -58 -20 0 -17 -7 -20 -40 -20 -33 0 -40 -3 -40 -20 0 -17 -7 -20 -43 -20
-42 0 -44 -1 -53 -37 l-10 -38 -8 38 c-9 40 -31 49 -41 17 -5 -16 -15 -20 -46
-20 -37 0 -39 -2 -39 -30 0 -28 -2 -30 -40 -30 -29 0 -40 -4 -40 -15 0 -11
-11 -15 -38 -15 -29 0 -39 5 -47 23 -7 15 -20 23 -42 25 -28 3 -33 0 -33 -17
0 -19 -6 -21 -80 -21 -73 0 -80 -2 -80 -20 0 -17 -7 -20 -40 -20 -33 0 -40 -3
-40 -20 0 -16 -7 -20 -30 -20 -21 0 -30 -5 -30 -16 0 -22 -57 -74 -81 -74 -11
0 -19 -7 -20 -17 -1 -12 -4 -10 -9 7 -8 24 -8 24 -9 3 -1 -19 -7 -23 -35 -23
-28 0 -36 -5 -44 -27 l-10 -28 -7 28 c-9 34 -35 36 -35 3 0 -19 -4 -23 -20
-19 -13 4 -27 -2 -39 -16 -10 -11 -23 -21 -29 -21 -12 0 -22 -24 -22 -51 0
-10 -4 -19 -10 -19 -5 0 -10 9 -10 20 0 27 -18 25 -22 -2 -2 -19 -10 -24 -40
-26 -33 -3 -38 -7 -38 -28 0 -13 -4 -24 -10 -24 -5 0 -10 -9 -10 -20 0 -24
-62 -90 -85 -90 -9 0 -30 -13 -46 -29 -30 -30 -37 -51 -18 -51 5 0 7 -4 4 -10
-3 -5 -26 -10 -51 -10 -42 0 -44 -1 -44 -29 0 -23 -5 -30 -28 -34 -20 -4 -32
-15 -42 -41 -7 -20 -18 -36 -23 -36 -14 0 -67 -57 -67 -72 0 -8 -10 -14 -22
-14 -36 -1 -95 -30 -108 -53 -10 -19 -8 -21 20 -21 16 0 30 -4 30 -10 0 -5
-20 -10 -45 -10 -37 0 -51 -6 -73 -27 l-27 -28 33 -3 c46 -5 40 -22 -8 -22
-22 0 -40 5 -40 10 0 6 -7 10 -15 10 -11 0 -15 -11 -15 -40 0 -36 -2 -40 -25
-40 -14 0 -25 -4 -25 -10 0 -5 -18 -10 -40 -10 -22 0 -40 -4 -40 -10 0 -5 18
-10 40 -10 22 0 40 -5 40 -11 0 -6 -18 -9 -47 -8 -42 3 -49 0 -64 -25 -9 -15
-32 -37 -50 -49 -27 -16 -30 -22 -16 -25 32 -7 17 -22 -23 -22 -29 0 -40 -4
-40 -15 0 -11 -11 -15 -40 -15 -29 0 -40 -4 -40 -15 0 -11 -11 -15 -40 -15
-36 0 -40 -2 -40 -25 0 -25 -1 -25 -80 -25 l-80 0 4 -37 c2 -21 1 -28 -1 -15
-4 18 -11 22 -44 22 -21 0 -39 -4 -39 -10 0 -6 -33 -10 -80 -10 -47 0 -80 4
-80 10 0 6 -11 10 -24 10 -13 0 -30 7 -37 17 -13 14 -15 13 -19 -13 l-6 -29
-17 32 c-22 41 -57 63 -57 36 -1 -16 -2 -16 -15 2 -8 11 -29 36 -48 55 -18 19
-44 60 -57 90 -13 30 -32 62 -41 71 -20 19 -49 87 -56 137 -3 17 -9 32 -14 32
-5 0 -9 9 -9 19 0 10 -6 21 -14 24 -9 4 -20 32 -27 66 -6 33 -18 66 -25 72 -8
6 -14 18 -14 27 0 23 -23 82 -32 82 -4 0 -8 8 -8 18 0 9 -9 32 -20 50 -11 18
-20 43 -20 56 0 13 -6 29 -14 35 -7 6 -21 41 -31 78 -10 38 -24 77 -31 88 -14
22 -33 91 -41 147 -3 25 -19 52 -54 90 -27 29 -49 57 -49 61 0 5 -6 5 -12 1
-10 -6 -10 -4 0 7 37 40 -19 129 -82 129 -25 0 -38 6 -46 20 -9 17 -8 20 10
20 11 0 20 3 20 6 0 16 -94 94 -113 94 -22 0 -21 1 3 20 19 15 21 20 8 20 -9
0 -23 3 -31 6 -10 3 -17 -1 -19 -12 -3 -16 -4 -16 -22 2 -20 19 -19 19 24 24
42 5 43 6 26 23 -11 11 -33 17 -62 17 -37 0 -44 -3 -44 -20 0 -18 -7 -20 -80
-20 -47 0 -80 -4 -80 -10 0 -6 -33 -10 -80 -10 l-80 0 -1 53 -1 52 -10 -45
c-9 -40 -12 -43 -19 -22 -5 12 -13 32 -18 45 -7 20 -10 17 -19 -23z m3843
-350 c3 -5 1 -10 -4 -10 -6 0 -11 5 -11 10 0 6 2 10 4 10 3 0 8 -4 11 -10z
m-7149 -1143 c4 -4 -9 -7 -30 -7 -20 0 -35 4 -32 8 6 10 52 9 62 -1z m5120
-249 c-3 -13 -6 -27 -6 -33 0 -5 -5 -3 -10 5 -15 23 -12 50 6 50 12 0 15 -6
10 -22z m94 12 c0 -5 -18 -10 -40 -10 -22 0 -40 5 -40 10 0 6 18 10 40 10 22
0 40 -4 40 -10z m-5685 -101 c11 -17 0 -20 -21 -4 -17 13 -17 14 -2 15 9 0 20
-5 23 -11z m62 -55 c-3 -3 -12 -4 -19 -1 -8 3 -5 6 6 6 11 1 17 -2 13 -5z"/>
<path d="M12240 10901 c0 -12 5 -21 10 -21 6 0 10 6 10 14 0 8 -4 18 -10 21
-5 3 -10 -3 -10 -14z"/>
<path d="M9620 10103 c0 -13 5 -23 10 -23 13 0 13 11 0 30 -8 12 -10 11 -10
-7z"/>
<path d="M9380 10023 c0 -13 5 -23 10 -23 13 0 13 11 0 30 -8 12 -10 11 -10
-7z"/>
<path d="M9432 10020 c0 -14 2 -19 5 -12 2 6 2 18 0 25 -3 6 -5 1 -5 -13z"/>
<path d="M9032 9940 c0 -14 2 -19 5 -12 2 6 2 18 0 25 -3 6 -5 1 -5 -13z"/>
<path d="M9060 9943 c0 -13 5 -23 10 -23 13 0 13 11 0 30 -8 12 -10 11 -10 -7z"/>
<path d="M7700 9400 c0 -22 5 -40 10 -40 6 0 10 18 10 40 0 22 -4 40 -10 40
-5 0 -10 -18 -10 -40z"/>
<path d="M7630 9350 c-8 -5 -10 -10 -5 -10 6 0 17 5 25 10 8 5 11 10 5 10 -5
0 -17 -5 -25 -10z"/>
<path d="M7662 9334 c-7 -8 -8 -14 -3 -14 10 0 25 19 20 25 -2 1 -10 -3 -17
-11z"/>
<path d="M9450 8090 c-8 -5 -10 -10 -5 -10 6 0 17 5 25 10 8 5 11 10 5 10 -5
0 -17 -5 -25 -10z"/>
<path d="M9440 8038 c0 -4 8 -8 18 -8 10 0 27 -7 39 -15 25 -18 82 -10 64 8
-7 7 -15 6 -26 -3 -12 -10 -15 -10 -15 3 0 8 4 17 10 19 5 2 -13 3 -40 4 -28
0 -50 -3 -50 -8z"/>
<path d="M9600 7961 c0 -38 -1 -39 -40 -46 -41 -7 -57 -35 -20 -35 11 0 20 -7
20 -15 0 -8 9 -15 19 -15 17 0 18 -3 8 -31 l-12 -31 -9 31 c-6 20 -15 31 -27
31 -20 0 -22 -10 -13 -58 5 -25 12 -32 38 -35 17 -2 -4 -2 -46 0 l-78 5 0 -41
0 -41 -40 0 c-33 0 -40 3 -40 20 0 17 -7 20 -40 20 -40 0 -40 0 -40 -39 0 -21
-3 -66 -7 -101 -4 -46 -3 -61 5 -56 8 5 10 2 6 -8 -4 -11 0 -16 15 -16 12 0
21 5 21 10 0 6 9 10 20 10 11 0 20 -4 20 -10 0 -5 -9 -10 -20 -10 -13 0 -20
-7 -20 -20 0 -13 -7 -20 -20 -20 -11 0 -20 -4 -20 -10 0 -5 9 -10 20 -10 11 0
20 5 20 10 0 6 9 10 20 10 19 0 20 -7 20 -110 0 -103 -1 -110 -20 -110 -13 0
-20 7 -20 20 0 13 -7 20 -20 20 -13 0 -20 -7 -20 -20 0 -13 7 -20 20 -20 13 0
20 -7 20 -20 0 -11 -6 -20 -13 -20 -9 0 -11 -12 -9 -40 2 -22 8 -40 13 -40 5
0 9 18 9 40 0 29 4 40 15 40 11 0 15 -11 15 -40 0 -36 3 -40 25 -40 25 0 25
-1 25 -80 0 -73 2 -80 20 -80 17 0 20 -7 20 -40 0 -33 3 -40 20 -40 17 0 20
-7 20 -40 0 -33 3 -40 20 -40 18 0 20 -7 20 -80 l0 -80 40 0 c40 0 40 0 40
-39 0 -36 3 -40 27 -43 31 -3 40 -26 42 -110 1 -40 4 -48 20 -48 46 0 51 -9
51 -86 0 -43 4 -74 10 -74 6 0 10 -18 10 -40 0 -38 2 -40 30 -40 17 0 30 5 30
10 0 6 -4 10 -10 10 -5 0 -10 9 -10 20 0 11 -4 20 -10 20 -5 0 -10 5 -10 10 0
6 13 10 29 10 16 0 31 6 34 13 2 7 8 8 13 3 5 -5 4 -11 -3 -13 -17 -6 -18
-201 -2 -275 10 -46 13 -50 20 -30 28 71 26 70 39 5 8 -42 17 -63 27 -63 24 0
83 -67 83 -95 0 -14 -4 -25 -10 -25 -5 0 -10 -7 -10 -15 0 -11 11 -15 40 -15
29 0 40 4 40 15 0 8 5 15 10 15 6 0 10 -35 10 -85 0 -84 1 -86 35 -120 26 -27
43 -35 70 -35 34 0 35 -1 35 -40 0 -29 -4 -40 -15 -40 -11 0 -15 -11 -15 -40
l0 -40 45 0 45 0 0 -40 c0 -34 3 -40 21 -40 19 0 20 -5 18 -95 -3 -92 6 -132
18 -87 7 29 30 28 36 0 l4 -23 2 23 c2 39 21 24 21 -18 0 -38 2 -40 30 -40 26
0 30 -4 30 -28 0 -15 5 -33 12 -40 9 -9 9 -12 0 -12 -7 0 -12 -13 -12 -30 0
-28 2 -30 40 -30 l40 0 0 -130 0 -130 40 0 40 0 0 -80 0 -80 38 0 39 0 13
-117 c10 -87 10 -118 1 -121 -6 -2 -11 -21 -11 -43 0 -39 0 -39 40 -39 l40 0
0 -80 c0 -79 0 -80 25 -80 23 0 25 -4 25 -40 0 -29 4 -40 15 -40 12 0 15 -16
15 -80 l0 -80 40 0 40 0 0 -120 c0 -73 4 -120 10 -120 6 0 10 -33 10 -80 0
-47 4 -80 10 -80 6 0 10 18 10 40 0 29 4 40 15 40 11 0 15 -11 15 -40 l0 -40
55 0 55 0 0 -40 0 -40 -50 0 c-27 0 -50 -4 -50 -10 0 -5 18 -10 40 -10 38 0
40 -2 40 -30 0 -16 5 -30 10 -30 6 0 10 -33 10 -80 0 -73 2 -80 20 -80 17 0
20 -7 20 -40 0 -22 5 -40 10 -40 6 0 10 -20 10 -45 0 -25 5 -45 10 -45 15 0
13 -140 -2 -142 -7 0 7 -4 32 -8 l45 -7 -42 -1 c-31 -2 -43 -6 -43 -17 0 -11
11 -15 40 -15 22 0 40 -4 40 -10 0 -5 -18 -10 -40 -10 l-40 0 0 -40 c0 -39 1
-40 36 -40 60 0 64 -10 64 -184 l0 -156 30 0 30 0 0 -154 c0 -170 -2 -165 68
-167 20 0 31 -3 25 -6 -7 -2 -13 -11 -13 -18 0 -7 6 -15 13 -18 8 -3 5 -11
-10 -24 -31 -27 -33 -93 -3 -93 18 0 20 -7 20 -80 l0 -80 30 0 30 0 0 -79 0
-80 43 -4 42 -4 -42 -1 c-31 -1 -43 -6 -43 -17 0 -11 11 -15 40 -15 22 0 40
-4 40 -10 0 -5 -18 -10 -40 -10 l-41 0 3 -95 3 -95 38 0 c20 0 37 -4 37 -10 0
-5 -18 -10 -40 -10 -22 0 -40 -4 -40 -10 0 -5 18 -10 40 -10 53 0 51 -18 -2
-23 l-43 -4 43 -1 42 -2 0 -40 0 -40 40 0 40 0 2 -42 c1 -24 0 -118 -2 -211
l-3 -167 42 0 c39 0 41 -2 41 -30 0 -28 2 -30 40 -30 l40 0 0 -120 0 -120 40
0 40 0 0 -120 c0 -73 4 -120 10 -120 6 0 10 18 10 40 0 33 3 40 20 40 17 0 20
-7 20 -40 0 -22 5 -40 10 -40 6 0 10 -18 10 -40 l0 -40 1138 0 1138 0 16 53
c81 256 174 638 228 932 63 344 91 754 71 1050 -18 283 -25 337 -87 620 -34
157 -71 281 -148 503 -41 120 -60 199 -38 164 10 -15 95 85 88 104 -3 7 0 11
7 9 7 -2 55 48 107 111 52 63 102 122 110 132 9 9 52 59 95 111 74 87 133 155
206 238 16 18 28 37 27 42 -2 5 1 9 5 9 17 0 67 56 63 69 -3 7 0 12 7 10 7 -1
11 5 9 13 -2 8 0 12 4 7 10 -10 65 43 57 56 -3 6 -1 7 4 4 14 -9 37 19 27 34
-4 7 -3 9 3 6 6 -4 37 24 69 61 32 37 68 76 79 88 11 11 40 43 63 70 24 27 62
68 85 92 34 36 39 45 27 54 -12 8 -12 9 2 4 13 -4 32 10 65 46 27 29 84 90
128 136 55 59 79 91 77 106 -1 15 0 17 7 7 6 -10 37 16 122 104 63 64 116 122
118 128 2 7 -6 3 -18 -7 -18 -16 -24 -17 -34 -6 -9 10 -9 11 1 6 6 -4 19 0 28
9 9 9 23 14 30 11 13 -5 19 7 14 29 -1 5 2 7 6 2 4 -4 18 3 31 15 19 17 21 24
10 37 -8 10 -8 13 0 8 13 -8 63 12 63 25 0 11 -17 10 -23 -2 -3 -6 -4 -5 -3 2
2 7 10 13 18 13 21 0 149 126 141 138 -3 6 -2 7 4 4 11 -7 80 63 75 76 -1 5 1
6 6 3 11 -7 136 120 128 132 -3 5 2 9 12 8 9 0 16 5 14 12 -1 8 1 11 6 8 12
-7 77 64 77 84 0 8 8 15 17 15 23 0 70 43 62 57 -4 6 -3 8 3 5 11 -7 57 36 48
45 -3 3 1 8 10 12 11 4 14 2 9 -7 -4 -6 4 -2 16 10 21 19 22 24 9 40 -13 17
-13 17 4 4 16 -13 27 -5 116 80 54 52 97 99 95 106 -2 7 1 15 7 19 6 3 8 13 4
21 -4 13 -3 14 10 3 14 -11 13 -14 -2 -27 -17 -13 -16 -13 3 -4 33 16 49 40
36 53 -7 7 -15 8 -19 4 -4 -4 -1 -11 7 -16 8 -6 10 -10 4 -10 -6 0 -18 8 -27
18 -15 16 -14 17 23 17 23 0 36 -4 33 -10 -3 -5 16 11 43 38 27 26 57 53 67
60 15 10 16 17 8 40 -7 18 -7 26 -1 22 16 -10 35 6 19 16 -10 6 -6 8 11 7 19
-2 24 1 22 14 -2 13 2 16 13 12 18 -7 8 -24 -33 -58 -13 -10 -21 -21 -18 -23
3 -3 26 14 52 38 99 91 169 156 240 225 40 39 75 70 77 68 2 -2 14 8 28 24 13
15 17 21 9 15 -20 -18 -30 -16 -24 5 5 13 4 14 -4 3 -6 -8 -8 -21 -4 -30 3 -9
1 -13 -3 -8 -5 4 -16 0 -26 -9 -16 -15 -19 -14 -37 3 -11 10 -22 25 -25 33 -5
13 -6 13 -6 0 -1 -9 -9 -16 -18 -16 -10 0 -28 -4 -40 -8 -21 -7 -23 -4 -23 33
l0 41 -40 0 c-33 0 -40 -3 -40 -20 0 -19 -7 -20 -160 -20 -153 0 -160 1 -160
20 0 17 -7 20 -40 20 -33 0 -40 -3 -40 -20 0 -17 -7 -20 -40 -20 -33 0 -40 -3
-40 -20 0 -17 -7 -20 -41 -20 -41 0 -41 0 -36 -32 3 -18 3 -27 0 -20 -2 6 -22
12 -44 12 -38 0 -39 1 -39 35 0 19 -4 35 -10 35 -6 0 -10 -32 -10 -75 l0 -75
-30 0 c-23 0 -30 4 -30 20 0 16 -7 20 -30 20 -18 0 -30 -5 -30 -13 0 -7 -9
-19 -20 -27 -11 -8 -20 -20 -20 -27 0 -8 -12 -13 -30 -13 -23 0 -30 -4 -30
-20 0 -17 -7 -20 -40 -20 l-40 0 0 -40 0 -40 -40 0 -40 0 0 -40 0 -40 -40 0
c-33 0 -40 -3 -40 -20 0 -17 -7 -20 -40 -20 l-40 0 0 -40 0 -40 -40 0 -40 0 0
-60 0 -60 -40 0 -40 0 0 -40 0 -40 -40 0 c-22 0 -40 -4 -40 -10 0 -5 -18 -10
-40 -10 -22 0 -40 -4 -40 -10 0 -5 18 -10 40 -10 22 0 40 -4 40 -10 0 -5 -18
-10 -40 -10 l-40 0 0 -50 0 -50 -40 0 -40 0 0 -40 c0 -38 -2 -40 -30 -40 l-30
0 0 -80 0 -80 -40 -1 c-22 -1 -44 -3 -50 -4 -5 -1 -14 -3 -20 -4 -5 0 -10 -21
-10 -46 0 -43 -1 -45 -30 -45 -27 0 -30 -3 -30 -30 0 -20 -5 -30 -15 -30 -18
0 -22 -76 -4 -82 6 -2 8 -14 3 -32 -10 -43 -24 -12 -24 57 0 50 -2 57 -20 57
-13 0 -20 -7 -20 -20 0 -17 -7 -20 -40 -20 l-40 0 0 -100 0 -100 -40 0 -40 0
0 -40 0 -40 -40 0 c-33 0 -40 -3 -40 -20 0 -17 -7 -20 -40 -20 l-40 0 6 -59
c4 -39 3 -61 -5 -65 -6 -4 -11 -23 -11 -42 0 -24 -5 -34 -15 -34 -12 0 -15 13
-15 60 0 53 -2 60 -20 60 -17 0 -20 -7 -20 -40 0 -22 -4 -40 -10 -40 -5 0 -10
-20 -10 -45 0 -43 -1 -45 -30 -45 -30 0 -30 -1 -30 -55 l0 -55 -40 0 -40 0 0
-40 c0 -40 0 -40 -39 -40 -29 0 -40 5 -43 17 -3 15 -4 15 -17 0 -12 -15 -11
-17 3 -17 12 0 16 -10 16 -40 l0 -40 -40 0 -40 0 0 -40 c0 -23 -5 -40 -11 -40
-7 0 -23 -12 -38 -27 l-26 -28 -3 28 c-6 53 -62 24 -62 -32 0 -12 -4 -21 -10
-21 -5 0 -10 -22 -10 -50 l0 -50 -40 0 c-29 0 -40 -4 -40 -15 0 -11 -11 -15
-40 -15 -29 0 -40 -4 -40 -15 0 -11 11 -15 40 -15 22 0 40 -4 40 -10 0 -5 -18
-10 -40 -10 -39 0 -40 -1 -40 -35 0 -34 -1 -35 -40 -35 -33 0 -40 -3 -40 -20
0 -17 -7 -20 -40 -20 l-40 0 0 -55 c0 -32 4 -55 11 -55 5 0 7 -4 4 -10 -9 -15
-92 -12 -99 3 -3 6 -3 -8 0 -31 5 -39 4 -43 -12 -40 -12 2 -22 17 -27 41 -6
26 -14 37 -23 33 -8 -3 -14 0 -14 6 0 6 -3 8 -7 5 -3 -4 3 -17 16 -28 14 -13
20 -27 16 -40 -4 -10 -2 -19 4 -19 5 0 13 -9 16 -21 5 -15 10 -17 20 -9 10 8
12 2 11 -28 0 -34 -3 -38 -17 -29 -9 5 -22 26 -29 46 -7 20 -16 38 -20 41 -4
3 -35 50 -70 105 -34 55 -77 121 -96 148 -19 26 -34 51 -34 56 0 5 -3 11 -7
13 -5 2 -21 23 -37 48 -16 25 -45 68 -66 95 -20 28 -75 102 -122 165 -47 63
-93 122 -103 130 -9 8 -20 22 -24 31 -6 15 -78 102 -168 200 -24 25 -43 49
-43 53 0 4 -15 24 -34 44 -35 38 -124 135 -190 207 -20 22 -36 44 -36 48 0 5
-4 5 -10 2 -5 -3 -10 -1 -10 5 0 17 -62 80 -72 74 -5 -3 -7 -2 -6 3 4 13 -322
338 -335 335 -7 -2 -9 -1 -5 3 10 10 -43 66 -55 58 -6 -3 -7 -1 -4 4 9 14 -19
37 -34 27 -8 -4 -9 -3 -5 4 4 7 -5 23 -21 38 -15 14 -65 60 -111 102 -46 42
-98 90 -115 105 -18 15 -50 45 -72 66 -22 21 -85 76 -140 122 -55 46 -111 95
-125 109 -14 14 -39 36 -55 50 -125 104 -162 136 -172 148 -6 8 -16 11 -22 7
-7 -4 -8 1 -4 12 3 10 3 15 -2 11 -4 -4 -29 10 -54 32 -54 48 -81 70 -153 128
-29 23 -89 72 -133 108 -44 35 -84 68 -90 72 -5 4 -32 25 -60 48 -27 22 -67
51 -87 63 -21 12 -38 26 -38 30 0 4 -12 14 -27 23 -16 9 -42 31 -60 48 -20 20
-37 29 -45 24 -7 -4 -10 -4 -6 1 7 7 -43 55 -58 55 -5 0 -22 14 -38 30 -16 17
-35 30 -41 30 -7 0 -20 9 -30 20 -11 12 -36 31 -57 42 -21 12 -38 25 -38 30 0
4 -7 8 -15 8 -8 0 -14 6 -12 13 1 7 -6 11 -17 9 -12 -2 -16 1 -10 9 5 9 2 10
-10 6 -9 -4 -14 -3 -11 2 6 11 -11 24 -35 28 -8 1 -25 14 -36 29 -12 14 -27
23 -33 20 -6 -4 -11 0 -11 8 0 9 -6 16 -14 16 -8 0 -21 8 -28 18 -13 16 -113
91 -113 83 0 -2 -15 5 -32 16 -18 11 -30 23 -25 28 4 4 0 6 -8 3 -8 -2 -23 4
-34 14 -11 10 -32 23 -47 30 -15 7 -25 16 -22 21 3 5 -4 6 -16 2 -22 -7 -30 9
-8 19 6 4 2 4 -11 2 -15 -3 -22 0 -19 7 2 7 -9 18 -25 24 -18 8 -27 17 -22 24
4 8 -1 7 -16 -1 -17 -9 -25 -9 -34 0 -8 8 -6 9 9 4 18 -7 18 -6 6 9 -7 9 -19
17 -27 17 -7 0 -19 9 -27 20 -8 11 -29 22 -48 24 -22 2 -33 8 -32 17 4 20 -37
45 -47 29 -5 -8 -13 -5 -28 10 -11 12 -32 23 -46 23 -26 0 -34 11 -17 22 5 3
12 1 16 -5 3 -5 14 -10 23 -10 13 0 12 3 -6 16 -12 8 -27 12 -32 9 -6 -3 -10
-2 -10 3 0 5 -9 12 -21 15 -12 3 -18 10 -14 16 3 6 -1 11 -9 11 -12 0 -16 -10
-16 -39z m0 -66 c0 -8 -9 -15 -20 -15 -11 0 -20 7 -20 15 0 8 9 15 20 15 11 0
20 -7 20 -15z m-17 -192 c-13 -2 -33 -2 -45 0 -13 2 -3 4 22 4 25 0 35 -2 23
-4z m703 -158 c10 -8 14 -15 9 -15 -6 0 -17 6 -23 12 -10 10 -15 10 -22 -2 -5
-8 -10 -10 -10 -4 0 26 18 30 46 9z m7157 -872 c3 -5 -16 -9 -41 -11 -34 -2
-43 0 -32 8 18 11 67 13 73 3z m-123 -77 c0 -29 -4 -36 -20 -36 -17 0 -20 7
-20 43 0 24 3 46 6 50 13 13 34 -23 34 -57z m160 52 c-1 -7 -12 -22 -26 -33
-14 -11 -42 -37 -62 -57 -19 -21 -40 -38 -46 -38 -6 0 -4 6 5 13 9 7 14 18 11
26 -3 8 0 11 7 7 6 -4 11 -2 11 3 0 14 -17 14 -25 1 -13 -22 -20 -8 -17 32 l4
42 15 -27 c17 -33 27 -34 58 -3 15 15 26 20 29 13 2 -7 8 -2 11 11 8 23 25 31
25 10z m-700 -38 c0 -16 -4 -30 -9 -30 -5 0 -11 14 -13 30 -3 20 0 30 9 30 8
0 13 -12 13 -30z m267 -32 c-2 -13 -4 -3 -4 22 0 25 2 35 4 23 2 -13 2 -33 0
-45z m50 0 c-2 -13 -4 -3 -4 22 0 25 2 35 4 23 2 -13 2 -33 0 -45z m30 0 c-2
-13 -4 -3 -4 22 0 25 2 35 4 23 2 -13 2 -33 0 -45z m50 0 c-2 -13 -4 -3 -4 22
0 25 2 35 4 23 2 -13 2 -33 0 -45z m220 41 c-14 -8 -22 -8 -30 0 -8 8 -3 11
19 11 25 -1 27 -2 11 -11z m-197 -69 c0 -5 -5 -10 -11 -10 -5 0 -7 5 -4 10 3
6 8 10 11 10 2 0 4 -4 4 -10z m63 3 c3 -5 0 -13 -7 -19 -8 -8 -15 -7 -23 2 -7
6 -9 15 -6 18 9 8 31 8 36 -1z m61 -48 c-4 -8 -8 -15 -10 -15 -2 0 -4 7 -4 15
0 8 4 15 10 15 5 0 7 -7 4 -15z m-60 -37 c-3 -4 -1 -8 5 -8 5 0 13 5 16 10 3
6 11 10 16 10 5 0 -6 -14 -25 -31 -32 -28 -37 -29 -51 -16 -11 11 -12 18 -4
23 8 5 8 8 0 14 -7 3 2 7 18 7 17 0 28 -4 25 -9z m-134 -152 c-6 -8 -19 -12
-27 -9 -11 4 -14 2 -9 -5 9 -16 -7 -15 -22 0 -6 6 -15 9 -19 5 -3 -4 1 -13 11
-20 16 -12 16 -13 -2 -13 -13 0 -19 7 -18 21 1 16 8 20 38 20 20 0 40 4 44 8
13 13 17 7 4 -7z m-7320 -28 l0 -31 -19 22 -20 22 -4 -28 c-3 -23 -4 -22 -6
10 -1 33 2 37 24 37 21 0 25 -5 25 -32z m7260 -32 c0 -2 -7 -7 -16 -10 -8 -3
-12 -2 -9 4 6 10 25 14 25 6z m-162 -143 c-6 -7 -12 -13 -13 -13 -2 0 -5 6 -8
13 -3 7 3 13 14 13 13 0 15 -3 7 -13z m-6988 -23 c0 -5 -4 -10 -10 -10 -5 0
-10 5 -10 10 0 6 5 10 10 10 6 0 10 -4 10 -10z m6970 -4 c0 -2 -8 -10 -17 -17
-16 -13 -17 -12 -4 4 13 16 21 21 21 13z m-70 -69 c0 -2 -10 -12 -22 -23 l-23
-19 19 23 c18 21 26 27 26 19z m-6880 -49 c0 -15 5 -19 20 -15 15 4 20 0 20
-14 0 -14 -7 -19 -30 -19 -28 0 -30 2 -30 41 0 24 4 38 10 34 6 -3 10 -15 10
-27z m6827 11 c2 -16 -1 -19 -9 -11 -5 5 -7 15 -4 21 10 15 12 14 13 -10z
m-332 -319 c3 -5 1 -10 -4 -10 -6 0 -11 5 -11 10 0 6 2 10 4 10 3 0 8 -4 11
-10z m-221 -234 c-10 -8 -21 -12 -24 -10 -5 6 21 24 34 24 6 0 1 -6 -10 -14z
m-361 -360 c3 -8 -2 -20 -11 -27 -14 -11 -15 -11 -5 0 6 7 9 20 6 27 -3 8 -3
14 0 14 3 0 7 -6 10 -14z m-756 -88 c-2 -13 -4 -3 -4 22 0 25 2 35 4 23 2 -13
2 -33 0 -45z m-4317 -618 c0 -22 -4 -40 -10 -40 -5 0 -10 18 -10 40 0 22 5 40
10 40 6 0 10 -18 10 -40z m4390 -44 c0 -2 -8 -10 -17 -17 -16 -13 -17 -12 -4
4 13 16 21 21 21 13z m-166 -186 c-6 -6 -10 -3 -10 10 0 13 4 16 10 10 7 -7 7
-13 0 -20z m-744 -54 c0 -3 -4 -8 -10 -11 -5 -3 -10 -1 -10 4 0 6 5 11 10 11
6 0 10 -2 10 -4z m-145 -303 c3 -14 3 -28 0 -31 -3 -3 -8 4 -12 16 -3 12 -9
22 -14 22 -5 0 -9 7 -9 15 0 23 28 6 35 -22z m-2535 -2533 c0 -22 -4 -40 -10
-40 -5 0 -10 18 -10 40 0 22 5 40 10 40 6 0 10 -18 10 -40z m80 -80 c0 -33 -3
-40 -20 -40 -17 0 -20 7 -20 40 0 33 3 40 20 40 17 0 20 -7 20 -40z m80 -240
c0 -22 -4 -40 -10 -40 -5 0 -10 18 -10 40 0 22 5 40 10 40 6 0 10 -18 10 -40z
m157 -262 c-2 -13 -4 -3 -4 22 0 25 2 35 4 23 2 -13 2 -33 0 -45z"/>
<path d="M17235 6450 c-3 -5 1 -10 9 -10 9 0 16 5 16 10 0 6 -4 10 -9 10 -6 0
-13 -4 -16 -10z"/>
<path d="M9223 7560 c0 -25 2 -35 4 -22 2 12 2 32 0 45 -2 12 -4 2 -4 -23z"/>
<path d="M18410 7489 c0 -5 5 -7 10 -4 6 3 10 8 10 11 0 2 -4 4 -10 4 -5 0
-10 -5 -10 -11z"/>
<path d="M18082 7201 c-11 -6 -10 -10 4 -15 9 -4 22 -2 28 4 8 8 6 9 -8 4 -13
-5 -17 -4 -12 4 8 14 6 15 -12 3z"/>
<path d="M18070 7159 c0 -5 5 -7 10 -4 6 3 10 8 10 11 0 2 -4 4 -10 4 -5 0
-10 -5 -10 -11z"/>
<path d="M17845 6999 c-11 -16 -1 -19 13 -3 7 8 8 14 3 14 -5 0 -13 -5 -16
-11z"/>
<path d="M17874 6988 l-19 -23 23 19 c21 18 27 26 19 26 -2 0 -12 -10 -23 -22z"/>
<path d="M17140 6922 c0 -23 -4 -42 -10 -42 -5 0 -10 -18 -10 -40 0 -22 4 -40
9 -40 10 0 26 148 17 157 -3 4 -6 -12 -6 -35z"/>
<path d="M17187 6887 c-8 -72 -5 -99 8 -85 3 3 5 41 3 84 l-3 79 -8 -78z"/>
<path d="M17766 6922 c-2 -4 4 -8 14 -8 10 0 16 4 14 8 -3 4 -9 8 -14 8 -5 0
-11 -4 -14 -8z"/>
<path d="M17755 6880 c-3 -5 -19 -8 -34 -6 -25 3 -29 0 -26 -20 3 -28 4 -27
-29 -14 -19 7 -26 6 -26 -3 0 -15 -36 -48 -44 -40 -3 4 -6 2 -6 -4 0 -6 7 -14
16 -17 13 -5 14 -9 4 -21 -18 -22 -4 -18 25 7 26 23 25 41 -3 31 -15 -6 -15
-4 2 15 18 21 36 24 47 9 3 -4 26 10 50 32 24 22 41 40 37 41 -4 0 -10 -4 -13
-10z m-31 -25 c-7 -16 -24 -21 -24 -6 0 8 7 13 27 20 1 1 0 -6 -3 -14z m-84
-79 c-7 -7 -13 -7 -20 0 -6 6 -3 10 10 10 13 0 16 -4 10 -10z"/>
<path d="M17290 6840 c0 -22 5 -40 10 -40 6 0 10 18 10 40 0 22 -4 40 -10 40
-5 0 -10 -18 -10 -40z"/>
<path d="M16960 6820 c0 -17 7 -20 40 -20 33 0 40 3 40 20 0 17 -7 20 -40 20
-33 0 -40 -3 -40 -20z"/>
<path d="M17477 6723 c-13 -12 -7 -33 8 -33 18 0 20 16 3 23 -8 3 -6 6 5 6 9
1 17 -4 17 -10 0 -5 5 -7 10 -4 6 3 10 10 10 16 0 10 -43 12 -53 2z"/>
<path d="M9623 6440 c0 -25 2 -35 4 -22 2 12 2 32 0 45 -2 12 -4 2 -4 -23z"/>
<path d="M0 3010 l0 -3010 3135 0 3134 0 -53 153 c-104 295 -247 665 -336 867
-23 52 -52 120 -65 150 -13 30 -42 93 -64 140 -23 46 -39 91 -36 98 2 7 1 11
-3 8 -8 -5 -96 167 -92 180 1 4 -2 10 -7 13 -5 3 -33 53 -62 111 -29 58 -71
137 -92 175 -22 39 -49 90 -61 115 -12 25 -28 51 -35 58 -7 7 -13 17 -13 22 0
9 -159 279 -226 383 -128 197 -374 558 -394 577 -3 3 -32 41 -65 85 -32 44
-63 85 -67 90 -350 433 -454 550 -748 845 -228 229 -372 364 -469 440 -24 19
-59 50 -77 68 -18 17 -36 32 -40 32 -4 0 -23 15 -44 33 -20 17 -52 43 -70 57
-18 14 -47 37 -65 53 -18 15 -40 27 -49 27 -9 0 -21 11 -26 24 -8 21 -43 43
-61 39 -3 -1 -21 11 -40 28 -19 16 -37 29 -41 29 -5 0 -17 9 -28 20 -12 12
-25 18 -30 15 -6 -4 -10 1 -10 9 0 9 -6 16 -14 16 -8 0 -27 11 -43 24 -15 13
-38 26 -50 30 -13 4 -23 13 -23 21 0 10 -12 13 -40 11 -22 -2 -37 1 -34 5 3 5
-4 9 -16 9 -12 0 -18 5 -15 10 4 6 11 8 16 5 18 -12 9 11 -12 28 -20 18 -21
18 -14 -2 12 -38 -23 -24 -47 19 -18 31 -27 38 -43 34 -11 -4 -22 -6 -25 -6
-29 -1 -40 4 -40 17 0 11 -11 15 -40 15 -37 0 -40 -2 -41 -27 -1 -16 -1 -31 0
-35 2 -15 -17 -8 -23 8 -9 24 -7 31 4 14 6 -9 10 -10 10 -3 0 7 -11 23 -24 37
-23 26 -46 34 -46 17 0 -5 -11 -4 -25 2 -20 10 -25 19 -25 50 0 26 -4 37 -15
37 -9 0 -15 -9 -15 -25 0 -34 -23 -23 -51 23 l-23 37 -5 -29 c-5 -26 -7 -27
-20 -13 -7 9 -17 15 -21 12 -5 -3 -11 -1 -15 5 -3 5 2 10 12 10 16 1 15 3 -6
20 -16 14 -38 20 -72 20 -40 0 -50 4 -60 23 -6 12 -24 34 -39 48 l-28 26 -7
-41 -7 -41 -10 30 c-5 17 -12 37 -15 45 -4 12 -7 12 -19 -4 -8 -11 -14 -14
-14 -8 0 7 -17 29 -37 50 -28 27 -38 33 -41 22 -4 -22 -65 -14 -88 11 -9 10
-25 19 -34 19 -9 0 -21 12 -27 28 l-11 27 -1 -27 c-1 -36 -6 -35 -43 4 -22 24
-32 28 -38 19 -11 -19 -150 -5 -150 16 0 8 5 11 11 7 9 -5 10 4 4 32 -10 54
-19 64 -25 29 l-6 -30 -25 28 c-15 15 -37 27 -52 27 -13 0 -38 7 -53 15 -16 8
-48 15 -71 15 -42 0 -83 25 -83 51 0 5 -4 7 -10 4 -5 -3 -11 2 -11 12 -1 10
-4 5 -8 -12 l-7 -30 -17 32 c-20 37 -57 63 -57 39 0 -10 -21 -16 -80 -21 -69
-6 -84 -5 -108 11 -27 19 -27 19 -4 22 12 2 20 8 17 13 -4 5 6 9 21 9 22 0 25
2 14 15 -8 9 -30 15 -56 15 -42 0 -44 -1 -44 -30 0 -28 -2 -30 -40 -30 -29 0
-40 4 -40 15 0 8 5 15 11 15 5 0 7 5 4 10 -3 6 -26 10 -51 10 -32 0 -44 4 -44
15 0 12 -16 15 -80 15 -64 0 -80 3 -80 15 0 11 11 15 40 15 22 0 40 5 40 10 0
6 -18 10 -40 10 -22 0 -40 -4 -40 -10 0 -5 -18 -10 -40 -10 -36 0 -40 3 -40
25 0 25 -1 25 -79 25 -68 0 -80 -3 -83 -17 -3 -15 -8 -13 -33 12 l-30 30 43 3
c55 4 44 22 -14 22 l-44 0 0 -3010z m2480 2115 c10 -12 9 -15 -6 -15 -11 0
-29 -3 -41 -6 -14 -4 -23 -2 -23 5 0 6 7 11 15 11 8 0 15 5 15 10 0 15 26 12
40 -5z m160 -96 c0 -5 -4 -7 -10 -4 -5 3 -10 -4 -10 -16 0 -18 -2 -19 -15 -9
-17 14 -21 35 -5 25 6 -3 10 -1 10 4 0 6 7 11 15 11 8 0 15 -5 15 -11z"/>
<path d="M560 5935 c0 -8 7 -15 16 -15 14 0 14 3 4 15 -7 8 -14 15 -16 15 -2
0 -4 -7 -4 -15z"/>
<path d="M16570 5780 c0 -5 5 -10 10 -10 6 0 10 5 10 10 0 6 -4 10 -10 10 -5
0 -10 -4 -10 -10z"/>
<path d="M15518 5661 c-2 -48 0 -58 12 -56 8 2 18 4 23 4 4 1 7 26 7 56 0 47
-3 55 -19 55 -16 0 -20 -9 -23 -59z"/>
<path d="M6240 5695 c0 -8 7 -15 16 -15 14 0 14 3 4 15 -7 8 -14 15 -16 15 -2
0 -4 -7 -4 -15z"/>
<path d="M5825 5638 c1 -24 6 -43 13 -44 7 -1 9 0 4 2 -5 3 -8 20 -6 39 1 19
-1 37 -5 39 -4 3 -7 -14 -6 -36z"/>
<path d="M5796 5653 c-6 -14 -5 -15 5 -6 7 7 10 15 7 18 -3 3 -9 -2 -12 -12z"/>
<path d="M6420 5605 c0 -22 -5 -47 -10 -55 -7 -11 -10 -7 -10 18 l0 32 -80 0
-80 0 0 -36 c0 -37 -18 -64 -43 -64 -9 0 -18 6 -20 13 -4 9 -8 9 -14 0 -4 -6
-24 -13 -43 -15 -25 -2 -36 -8 -39 -23 -2 -11 -9 -24 -17 -28 -8 -4 -14 -22
-14 -38 0 -24 -4 -30 -17 -27 -10 2 -22 13 -28 25 -5 13 -16 25 -23 28 -7 2
-10 0 -7 -5 3 -5 1 -19 -6 -31 -6 -12 -7 -19 -1 -15 6 3 13 0 16 -6 3 -7 3 -2
0 12 -5 24 -4 24 10 6 18 -22 22 -51 6 -41 -5 3 -10 2 -10 -3 0 -18 13 -21 27
-6 14 13 17 13 33 -1 14 -13 19 -13 24 -3 6 14 -4 -29 -12 -51 -4 -10 -1 -12
9 -6 8 5 11 4 6 0 -13 -15 -37 -14 -37 1 0 8 5 14 10 14 15 0 12 19 -5 36 -13
14 -15 14 -15 0 0 -9 -4 -16 -10 -16 -5 0 -1 -15 9 -32 53 -95 89 -147 94
-141 10 9 9 25 -1 19 -4 -2 -8 4 -8 15 0 18 2 18 12 5 6 -9 15 -12 19 -8 4 4
1 -6 -7 -22 -14 -27 -14 -32 4 -63 11 -18 24 -33 29 -33 5 0 9 -7 9 -15 0 -21
22 -65 33 -65 9 0 7 17 -8 54 -6 14 -4 17 6 14 9 -3 14 -19 13 -46 0 -23 3
-39 8 -36 4 3 5 -1 2 -9 -7 -19 35 -99 49 -90 6 3 7 1 3 -5 -9 -15 22 -75 34
-67 6 3 8 0 5 -7 -7 -18 129 -290 140 -281 4 5 5 3 2 -3 -3 -6 11 -46 32 -90
21 -43 50 -109 66 -146 24 -59 30 -66 44 -55 14 10 14 10 4 -4 -10 -12 -7 -29
18 -90 17 -41 57 -138 89 -216 31 -79 61 -139 65 -135 5 4 5 2 1 -5 -3 -6 14
-65 38 -130 305 -822 513 -1789 581 -2712 16 -218 35 -660 35 -818 l0 -103
1299 0 c1229 0 1300 1 1304 18 4 16 5 16 6 0 0 -10 6 -18 11 -18 13 0 13 5 -4
70 -8 30 -24 105 -35 165 -12 61 -25 119 -30 130 -5 11 -14 47 -21 80 -7 33
-18 81 -26 107 -8 26 -14 59 -14 73 0 14 -4 24 -9 21 -5 -4 -7 3 -4 14 3 12
-2 29 -11 39 -9 10 -14 20 -11 23 3 2 -4 40 -16 84 -11 43 -25 97 -30 119 -5
22 -12 47 -16 55 -7 17 -32 104 -57 200 -10 36 -24 79 -31 96 -8 17 -21 55
-29 85 -8 30 -18 65 -22 79 -4 14 -11 31 -17 38 -5 7 -7 15 -4 19 4 3 3 11 -1
17 -5 6 -17 38 -27 71 -23 77 -27 83 -37 59 -5 -12 -6 -8 -2 14 7 40 -11 89
-35 97 -21 6 -45 48 -39 67 3 7 12 -3 23 -25 27 -58 28 -37 2 42 -13 39 -27
67 -31 63 -5 -4 -7 0 -6 8 5 32 0 60 -11 60 -20 0 -40 29 -34 52 3 13 -4 50
-15 83 -11 33 -19 47 -17 30 2 -16 8 -38 12 -48 6 -13 4 -16 -9 -11 -9 3 -16
15 -16 25 0 10 -4 19 -10 19 -5 0 -10 14 -10 31 0 23 4 30 15 26 12 -5 12 -2
2 20 -9 21 -13 23 -15 10 -2 -9 -8 -17 -14 -17 -7 0 -8 17 -4 50 4 30 3 50 -3
50 -5 0 -12 8 -14 18 -2 9 -3 4 -1 -12 2 -16 -1 -47 -7 -69 -8 -31 -8 -42 2
-48 8 -4 10 -11 6 -15 -9 -9 -47 34 -47 53 0 7 6 13 14 13 26 0 27 43 1 67
-13 13 -29 23 -35 23 -7 0 -11 17 -10 43 2 58 1 64 -9 48 -7 -10 -8 0 -5 30 2
24 2 39 -1 33 -4 -9 -12 -9 -30 0 -20 9 -25 19 -25 46 0 34 -2 36 -37 38 -21
2 -39 5 -42 7 -2 3 -6 38 -9 80 -5 78 -22 105 -22 35 0 -22 -4 -40 -10 -40 -5
0 -10 18 -10 40 l0 40 -45 0 -45 0 0 45 c0 36 -5 51 -25 69 -25 23 -33 46 -16
46 5 0 4 11 -2 25 -10 20 -19 25 -49 25 -46 0 -56 30 -10 31 l27 0 -24 12
c-19 9 -25 9 -29 -1 -2 -6 -10 -12 -18 -12 -10 0 -14 13 -14 45 0 36 -5 51
-25 69 -20 19 -25 33 -25 74 l0 51 -47 3 c-46 3 -48 4 -56 41 -10 41 -23 46
-43 20 -13 -17 -13 -17 -14 0 0 9 5 17 10 17 6 0 10 18 10 40 0 36 -2 40 -25
40 -22 0 -25 4 -25 40 0 29 -4 40 -15 40 -11 0 -15 12 -15 44 0 25 -4 48 -10
51 -6 4 -10 -5 -10 -19 0 -24 -4 -26 -40 -26 -29 0 -40 4 -40 15 0 8 5 15 10
15 6 0 10 18 10 40 0 38 -13 55 -22 28 -3 -9 -6 -9 -12 0 -4 7 -2 12 3 12 6 0
11 18 11 40 0 36 -2 40 -25 40 -22 0 -25 4 -25 39 0 30 4 40 18 43 14 3 12 8
-13 33 l-30 30 -3 -32 c-5 -46 -22 -41 -22 6 0 35 -3 39 -30 43 -21 3 -30 0
-30 -9 0 -8 -4 -11 -10 -8 -5 3 -10 26 -10 51 0 32 -4 44 -15 44 -23 0 -21 77
3 82 14 3 12 8 -13 33 l-30 30 -3 -32 c-5 -47 -22 -41 -22 7 l0 40 -40 0 -40
0 0 40 c0 29 -4 40 -15 40 -11 0 -15 11 -15 40 0 47 -27 58 -32 13 l-3 -28
-25 25 c-22 22 -23 25 -7 28 23 5 25 82 2 82 -11 0 -15 11 -15 40 0 29 -4 40
-15 40 -11 0 -15 -11 -15 -40 0 -22 -4 -40 -10 -40 -5 0 -10 18 -10 40 0 22 5
40 10 40 6 0 10 7 10 15 0 11 -11 15 -40 15 -36 0 -40 3 -40 25 0 14 -4 25
-10 25 -5 0 -10 18 -10 40 0 29 -4 40 -15 40 -11 0 -15 11 -15 40 0 29 -4 40
-15 40 -11 0 -15 -11 -15 -40 0 -22 -4 -40 -10 -40 -5 0 -10 19 -10 41 l0 42
-40 -6 -40 -5 0 84 c0 49 4 84 10 84 6 0 10 7 10 15 0 11 -11 15 -40 15 -36 0
-40 -2 -40 -26 0 -14 -4 -23 -10 -19 -5 3 -10 29 -10 56 0 41 -5 55 -27 77
l-28 27 -3 -32 c-5 -47 -22 -41 -22 7 0 22 5 40 10 40 6 0 10 7 10 15 0 11
-11 15 -40 15 -29 0 -40 -4 -40 -15 0 -8 -4 -15 -10 -15 -5 0 -10 18 -10 40 0
29 -4 40 -15 40 -11 0 -15 11 -15 40 l0 40 -40 0 -40 0 0 44 c0 26 -6 48 -15
56 -13 11 -15 1 -15 -84 0 -57 -4 -96 -10 -96 -5 0 -10 18 -10 40 l0 40 -40 0
-40 0 0 45 c0 37 -5 51 -27 73 l-28 27 -3 -43 c-4 -55 -22 -44 -22 14 0 32 -4
44 -15 44 -11 0 -15 11 -15 40 0 29 -4 40 -15 40 -11 0 -15 -11 -15 -40 0 -22
-4 -40 -10 -40 -5 0 -10 18 -10 40 0 29 -4 40 -15 40 -11 0 -15 11 -15 40 0
29 -4 40 -15 40 -11 0 -15 -12 -15 -50 l0 -50 -36 0 c-45 0 -64 19 -64 64 0
33 -2 36 -30 36 -20 0 -30 5 -30 15 0 11 -11 15 -40 15 -36 0 -40 3 -40 25 0
25 -1 25 -80 25 -47 0 -80 -4 -80 -10 0 -5 -18 -10 -40 -10 -33 0 -40 3 -40
20 0 17 -7 20 -39 20 -36 0 -40 3 -44 28 l-4 27 -2 -27 c0 -17 -7 -28 -15 -28
-15 0 -30 45 -21 60 3 6 1 18 -4 27 -8 15 -10 10 -11 -22z m-267 -473 c-3 -12
-9 -19 -14 -16 -5 3 -3 14 3 24 15 24 19 21 11 -8z m1287 -182 c0 -5 -7 -10
-15 -10 -8 0 -15 5 -15 10 0 6 7 10 15 10 8 0 15 -4 15 -10z m-1150 -65 c0 -5
-5 -3 -10 5 -5 8 -10 20 -10 25 0 6 5 3 10 -5 5 -8 10 -19 10 -25z m1467 -301
c-3 -3 -12 -4 -19 -1 -8 3 -5 6 6 6 11 1 17 -2 13 -5z m1754 -2662 c-14 -5
-40 26 -40 48 0 10 9 4 26 -15 16 -18 21 -31 14 -33z m474 -1592 c3 -5 1 -10
-4 -10 -6 0 -11 5 -11 10 0 6 2 10 4 10 3 0 8 -4 11 -10z"/>
<path d="M6472 5620 c0 -14 2 -19 5 -12 2 6 2 18 0 25 -3 6 -5 1 -5 -13z"/>
<path d="M1347 5623 c-16 -16 -6 -30 18 -25 20 3 23 7 14 18 -13 15 -22 17
-32 7z"/>
<path d="M5862 5583 c-8 -15 -4 -30 22 -72 32 -51 33 -52 33 -21 0 19 -3 26
-8 18 -5 -9 -11 -4 -18 14 -5 14 -15 30 -22 34 -10 5 -8 9 4 13 11 4 13 11 8
20 -7 11 -11 10 -19 -6z"/>
<path d="M5907 5579 c4 -13 8 -18 11 -10 2 7 -1 18 -6 23 -8 8 -9 4 -5 -13z"/>
<path d="M5941 5423 c7 -12 15 -20 18 -17 3 2 -3 12 -13 22 -17 16 -18 16 -5
-5z"/>
<path d="M2320 5210 c0 -6 7 -10 15 -10 8 0 15 2 15 4 0 2 -7 6 -15 10 -8 3
-15 1 -15 -4z"/>
<path d="M2400 5190 c0 -5 4 -10 9 -10 6 0 13 5 16 10 3 6 -1 10 -9 10 -9 0
-16 -4 -16 -10z"/>
<path d="M10322 5060 c0 -14 2 -19 5 -12 2 6 2 18 0 25 -3 6 -5 1 -5 -13z"/>
<path d="M10367 5073 c-12 -12 -7 -33 8 -33 17 0 19 9 7 28 -5 7 -11 9 -15 5z"/>
<path d="M7520 5055 c0 -8 7 -15 16 -15 14 0 14 3 4 15 -7 8 -14 15 -16 15 -2
0 -4 -7 -4 -15z"/>
<path d="M15020 4980 c0 -11 5 -20 10 -20 6 0 10 9 10 20 0 11 -4 20 -10 20
-5 0 -10 -9 -10 -20z"/>
<path d="M19920 4935 c0 -22 -4 -25 -40 -25 -29 0 -40 -4 -40 -15 0 -11 11
-15 40 -15 22 0 40 -4 40 -10 0 -6 -33 -10 -80 -10 l-80 0 0 -30 c0 -28 -2
-30 -40 -30 -36 0 -40 -2 -40 -25 0 -22 -4 -25 -40 -25 -29 0 -40 -4 -40 -15
0 -11 11 -15 40 -15 22 0 40 -4 40 -10 0 -6 -33 -10 -80 -10 -64 0 -80 -3 -80
-15 0 -11 -11 -15 -40 -15 l-40 0 0 -40 0 -40 -40 0 c-36 0 -40 -2 -40 -25 0
-22 -4 -25 -40 -25 -29 0 -40 -4 -40 -15 0 -12 -16 -15 -80 -15 -64 0 -80 -3
-80 -15 0 -11 11 -15 40 -15 22 0 40 -4 40 -10 0 -5 -18 -10 -40 -10 -29 0
-40 -4 -40 -15 0 -11 -11 -15 -40 -15 -36 0 -40 -2 -40 -25 0 -22 -4 -25 -40
-25 -29 0 -40 -4 -40 -15 0 -12 -16 -15 -80 -15 -64 0 -80 -3 -80 -15 0 -11
11 -15 40 -15 22 0 40 -4 40 -10 0 -5 -18 -10 -40 -10 -38 0 -40 -2 -40 -30 0
-28 -2 -30 -40 -30 -22 0 -40 -4 -40 -10 0 -5 -18 -10 -40 -10 -28 0 -40 -4
-40 -14 0 -10 -22 -16 -80 -21 -83 -7 -111 -25 -40 -25 22 0 40 -4 40 -10 0
-6 -47 -10 -120 -10 -73 0 -120 -4 -120 -10 0 -5 18 -10 40 -10 28 0 40 -4 40
-14 0 -10 -22 -16 -80 -21 -44 -4 -80 -11 -80 -16 0 -5 -18 -9 -40 -9 l-40 0
0 -40 0 -40 -80 0 -80 0 0 -30 c0 -28 -2 -30 -40 -30 -22 0 -40 -4 -40 -10 0
-5 -18 -10 -40 -10 -22 0 -40 5 -40 10 0 6 -7 10 -15 10 -11 0 -15 -11 -15
-40 0 -29 4 -40 15 -40 8 0 15 -4 15 -10 0 -5 -18 -10 -40 -10 -22 0 -40 5
-40 10 0 6 -18 10 -40 10 l-40 0 0 -40 0 -40 -40 0 c-36 0 -40 -2 -40 -25 0
-25 -1 -25 -80 -25 -64 0 -80 -3 -80 -15 0 -8 5 -15 10 -15 15 0 12 -70 -4
-86 -8 -8 -31 -14 -50 -14 -32 0 -36 3 -36 27 0 25 -1 25 -18 10 -10 -10 -28
-17 -40 -17 -17 0 -22 -6 -22 -25 0 -22 -4 -25 -40 -25 -36 0 -40 -2 -40 -25
0 -22 -4 -25 -40 -25 l-40 0 0 -41 0 -41 -45 4 c-37 2 -45 0 -45 -14 0 -22
-10 -48 -20 -48 -4 0 -11 19 -15 43 -8 45 -8 45 -25 -20 -10 -42 -12 -43 -50
-43 -29 0 -40 -4 -40 -15 0 -11 -11 -15 -40 -15 l-40 0 0 -40 0 -40 -40 0 -40
0 0 -65 0 -65 -40 0 c-38 0 -40 -2 -40 -30 0 -28 -2 -30 -40 -30 l-40 0 0 -40
0 -40 -40 0 c-22 0 -40 -4 -40 -10 0 -5 -18 -10 -40 -10 -22 0 -40 -4 -40 -10
0 -5 18 -10 40 -10 29 0 40 -4 40 -15 0 -11 -11 -15 -40 -15 l-40 0 0 -45 0
-45 -40 0 c-39 0 -40 -1 -41 -37 0 -21 -7 -54 -14 -73 l-13 -35 -7 33 c-9 38
-35 44 -35 7 0 -23 -4 -25 -45 -25 -33 0 -45 -4 -45 -15 0 -11 -11 -15 -40
-15 l-40 0 0 -65 0 -65 -40 0 c-37 0 -39 -2 -46 -35 -3 -20 -4 -49 0 -65 5
-29 4 -30 -34 -30 -38 0 -40 -2 -40 -30 0 -16 -4 -30 -10 -30 -5 0 -10 -18
-10 -40 0 -22 -4 -40 -10 -40 -5 0 -10 18 -10 40 0 29 -4 40 -15 40 -11 0 -15
-12 -16 -42 -1 -24 -3 -35 -6 -25 -3 12 -15 17 -44 17 l-39 0 0 -95 0 -95 -40
0 -40 0 0 -40 0 -40 -55 0 -55 0 0 -40 c0 -29 4 -40 15 -40 8 0 15 -4 15 -10
0 -5 -9 -10 -20 -10 -14 0 -20 -7 -20 -21 0 -15 -5 -20 -22 -18 -36 5 -48 -9
-48 -57 0 -40 -2 -44 -25 -44 -25 0 -25 -1 -25 -80 l0 -80 -41 0 -41 0 4 -77
c3 -43 3 -61 1 -40 -6 53 -33 51 -33 -3 0 -22 -4 -40 -10 -40 -5 0 -10 -6 -10
-14 0 -7 -7 -19 -15 -26 -10 -8 -15 -31 -15 -66 0 -30 -4 -54 -10 -54 -5 0
-10 -18 -10 -40 0 -22 5 -40 10 -40 6 0 10 -4 10 -10 0 -5 -18 -10 -40 -10
-29 0 -40 -4 -40 -15 0 -10 -10 -15 -30 -15 -20 0 -30 -5 -30 -15 0 -10 10
-15 30 -15 28 0 30 -2 30 -40 0 -22 -4 -40 -9 -40 -6 0 -12 -19 -14 -42 l-4
-43 -1 43 c-2 34 -6 42 -21 42 -16 0 -20 -11 -26 -80 l-7 -80 -39 0 c-38 0
-39 -1 -39 -34 0 -36 12 -46 56 -46 21 0 24 -4 24 -40 0 -22 -4 -40 -10 -40
-5 0 -10 -18 -10 -40 0 -36 -3 -40 -24 -40 -51 0 -56 -7 -56 -86 0 -67 -2 -74
-20 -74 -11 0 -20 -7 -20 -15 0 -8 -6 -15 -14 -15 -18 0 -33 -43 -17 -48 6 -2
11 -21 11 -43 0 -37 -2 -39 -30 -39 l-30 0 -1 -77 c-2 -65 -3 -71 -9 -38 -7
39 -7 39 -9 8 -1 -32 -3 -33 -41 -33 -22 0 -40 -4 -40 -10 0 -5 5 -10 10 -10
6 0 10 -18 10 -40 0 -22 -4 -40 -10 -40 -5 0 -10 -18 -10 -40 l0 -40 2600 0
2600 0 0 2480 0 2480 -40 0 c-36 0 -40 -2 -40 -25z m-2313 -1277 c-3 -8 -6 -5
-6 6 -1 11 2 17 5 13 3 -3 4 -12 1 -19z m53 7 c0 -8 -2 -15 -4 -15 -2 0 -6 7
-10 15 -3 8 -1 15 4 15 6 0 10 -7 10 -15z m-1580 -1195 c0 -5 -18 -10 -40 -10
-22 0 -40 5 -40 10 0 6 18 10 40 10 22 0 40 -4 40 -10z m-520 -670 c0 -33 -3
-40 -20 -40 -17 0 -20 7 -20 40 0 33 3 40 20 40 17 0 20 -7 20 -40z m-140
-320 c0 -22 -4 -40 -10 -40 -5 0 -10 18 -10 40 0 22 5 40 10 40 6 0 10 -18 10
-40z m-550 -1360 c0 -29 -4 -40 -15 -40 -11 0 -15 11 -15 40 0 29 4 40 15 40
11 0 15 -11 15 -40z"/>
<path d="M7680 4895 c0 -8 7 -15 16 -15 14 0 14 3 4 15 -7 8 -14 15 -16 15 -2
0 -4 -7 -4 -15z"/>
<path d="M7760 4775 c0 -16 36 -20 58 -6 10 6 8 10 -10 14 -36 10 -48 8 -48
-8z"/>
<path d="M7760 4700 c0 -37 2 -40 20 -30 18 10 46 48 38 54 -2 2 -15 6 -30 10
-27 6 -28 5 -28 -34z"/>
<path d="M7920 4575 c0 -8 7 -15 16 -15 14 0 14 3 4 15 -7 8 -14 15 -16 15 -2
0 -4 -7 -4 -15z"/>
<path d="M8080 4305 c0 -8 7 -15 15 -15 8 0 15 7 15 15 0 8 -7 15 -15 15 -8 0
-15 -7 -15 -15z"/>
<path d="M8130 4255 c0 -8 9 -15 20 -15 11 0 20 7 20 15 0 8 -9 15 -20 15 -11
0 -20 -7 -20 -15z"/>
<path d="M18640 4255 c0 -11 11 -15 40 -15 29 0 40 4 40 15 0 11 -11 15 -40
15 -29 0 -40 -4 -40 -15z"/>
<path d="M18480 4210 c0 -5 18 -10 40 -10 22 0 40 5 40 10 0 6 -18 10 -40 10
-22 0 -40 -4 -40 -10z"/>
<path d="M8161 4174 c0 -11 3 -14 6 -6 3 7 2 16 -1 19 -3 4 -6 -2 -5 -13z"/>
<path d="M16880 3375 c0 -11 11 -15 40 -15 29 0 40 4 40 15 0 11 -11 15 -40
15 -29 0 -40 -4 -40 -15z"/>
<path d="M8720 3296 c0 -9 5 -16 10 -16 6 0 10 4 10 9 0 6 -4 13 -10 16 -5 3
-10 -1 -10 -9z"/>
<path d="M8880 3030 c0 -13 20 -13 40 0 12 8 9 10 -12 10 -16 0 -28 -4 -28
-10z"/>
<path d="M9211 2695 c-1 -12 5 -27 12 -34 10 -11 10 -14 0 -18 -7 -3 -13 -17
-13 -31 1 -26 1 -26 15 6 13 29 13 38 1 65 -11 25 -15 27 -15 12z"/>
<path d="M15940 2440 c0 -22 5 -40 10 -40 6 0 10 18 10 40 0 22 -4 40 -10 40
-5 0 -10 -18 -10 -40z"/>
<path d="M9320 2431 c0 -5 5 -13 10 -16 6 -3 10 -2 10 4 0 5 -4 13 -10 16 -5
3 -10 2 -10 -4z"/>
<path d="M9480 2010 c0 -5 5 -10 11 -10 5 0 7 5 4 10 -3 6 -8 10 -11 10 -2 0
-4 -4 -4 -10z"/>
<path d="M11360 1320 c0 -5 18 -10 40 -10 22 0 40 5 40 10 0 6 -18 10 -40 10
-22 0 -40 -4 -40 -10z"/>
<path d="M15210 1240 c0 -29 4 -40 15 -40 11 0 15 11 15 40 0 29 -4 40 -15 40
-11 0 -15 -11 -15 -40z"/>
<path d="M11600 920 l0 -40 40 0 40 0 0 40 0 40 -40 0 -40 0 0 -40z"/>
<path d="M14880 428 c0 -16 5 -28 10 -28 13 0 13 20 0 40 -8 12 -10 9 -10 -12z"/>
</g>
</svg>
