<svg width="128" height="35" viewBox="0 0 128 35" fill="none" xmlns="http://www.w3.org/2000/svg">
<path fill-rule="evenodd" clip-rule="evenodd" d="M15.0146 23.973C14.6461 24.0132 14.2705 24.0339 13.8886 24.0339C8.4064 24.0339 4.20299 19.7703 4.20299 14.803C4.20299 9.83567 8.4064 5.57209 13.8886 5.57209C19.3706 5.57209 23.574 9.83555 23.5741 14.8028H27.7771C27.777 7.38354 21.5589 1.3691 13.8886 1.3691C6.21812 1.3691 0 7.38366 0 14.803C0 22.2223 6.21812 28.2369 13.8886 28.2369C14.2677 28.2369 14.6432 28.2222 15.0146 28.1933V23.973Z" fill="#9ED747"/>
<path opacity="0.87" d="M23.543 34.9301C22.0649 34.9301 20.9149 34.6453 20.0929 34.0757C19.2782 33.5061 18.8708 32.7094 18.8708 31.6855C18.8708 30.8924 19.1195 30.2075 19.617 29.6307C20.1145 29.0611 20.7887 28.7186 21.6395 28.6032C21.3006 28.4446 21.023 28.2283 20.8067 27.9543C20.5976 27.6803 20.4931 27.3631 20.4931 27.0026C20.4931 26.5988 20.6192 26.2239 20.8716 25.8778C21.124 25.5245 21.5025 25.2 22.0072 24.9044C21.3294 24.6593 20.7959 24.2447 20.4066 23.6607C20.0172 23.0694 19.8225 22.3592 19.8225 21.5301C19.8225 20.737 19.992 20.0484 20.3308 19.4644C20.6697 18.8804 21.1492 18.4297 21.7693 18.1125C22.3965 17.788 23.1356 17.6258 23.9864 17.6258C24.2459 17.6258 24.4803 17.633 24.6894 17.6474C24.9057 17.6618 25.104 17.6871 25.2842 17.7231C25.4645 17.752 25.6267 17.7916 25.7709 17.8421H29.567V18.6208L27.1444 18.783C27.4617 19.1652 27.6996 19.5797 27.8582 20.0268C28.0168 20.4666 28.0962 20.9316 28.0962 21.4219C28.0962 22.59 27.7284 23.5165 26.993 24.2014C26.2576 24.8864 25.2337 25.2289 23.9215 25.2289C23.561 25.2289 23.2077 25.1964 22.8616 25.1315C22.4218 25.3911 22.0865 25.6543 21.8558 25.921C21.6251 26.1806 21.5097 26.5051 21.5097 26.8944C21.5097 27.1396 21.5818 27.3414 21.726 27.5001C21.8702 27.6515 22.0793 27.7704 22.3533 27.857C22.6273 27.9363 22.9625 27.9759 23.3591 27.9759H25.4248C26.701 27.9759 27.678 28.2355 28.3557 28.7546C29.0335 29.2738 29.3724 30.038 29.3724 31.0475C29.3724 32.2804 28.864 33.2357 27.8474 33.9135C26.838 34.5912 25.4032 34.9301 23.543 34.9301ZM23.6187 34.0108C24.6497 34.0108 25.5077 33.8991 26.1927 33.6755C26.8849 33.452 27.404 33.1204 27.7501 32.6805C28.0962 32.2479 28.2692 31.7108 28.2692 31.0691C28.2692 30.5427 28.143 30.1354 27.8907 29.847C27.6383 29.5586 27.2814 29.3603 26.82 29.2521C26.3585 29.1368 25.8142 29.0791 25.1869 29.0791H23.2185C22.5912 29.0791 22.0324 29.1656 21.5421 29.3387C21.0519 29.5045 20.6697 29.7713 20.3957 30.139C20.129 30.5067 19.9956 30.997 19.9956 31.6098C19.9956 32.3957 20.302 32.9906 20.9149 33.3944C21.5349 33.8053 22.4362 34.0108 23.6187 34.0108ZM23.9648 24.3528C24.9381 24.3528 25.6844 24.1077 26.2035 23.6174C26.7226 23.1271 26.9822 22.4169 26.9822 21.4868C26.9822 20.4918 26.7154 19.7456 26.1819 19.2481C25.6483 18.7506 24.9021 18.5018 23.9431 18.5018C23.013 18.5018 22.2812 18.7686 21.7476 19.3021C21.2213 19.8285 20.9581 20.5711 20.9581 21.5301C20.9581 22.4241 21.2105 23.1199 21.7152 23.6174C22.2199 24.1077 22.9698 24.3528 23.9648 24.3528ZM36.6185 17.6474C36.9286 17.6474 37.2206 17.6654 37.4946 17.7015C37.7686 17.7375 38.0245 17.788 38.2624 17.8529L38.0894 18.8587C37.8515 18.7938 37.6099 18.747 37.3648 18.7181C37.1196 18.6821 36.8565 18.664 36.5753 18.664C36.0201 18.664 35.5226 18.7686 35.0828 18.9777C34.6502 19.1868 34.2825 19.486 33.9796 19.8754C33.6768 20.2647 33.4461 20.7334 33.2875 21.2813C33.1288 21.8293 33.0495 22.4422 33.0495 23.1199V29.609H31.9464V17.8529H32.8873L32.9954 20.07H33.0603C33.2406 19.6158 33.4929 19.2084 33.8174 18.8479C34.1491 18.4802 34.5492 18.1882 35.0179 17.9719C35.4865 17.7556 36.0201 17.6474 36.6185 17.6474ZM45.0219 17.6258C46.0242 17.6258 46.8569 17.8601 47.5203 18.3288C48.1908 18.7974 48.6883 19.4391 49.0128 20.2539C49.3444 21.0686 49.5103 22.0023 49.5103 23.055V23.8445H41.0203C41.0203 25.4596 41.3916 26.6997 42.1343 27.565C42.8841 28.4302 43.9548 28.8628 45.3464 28.8628C46.0746 28.8628 46.7055 28.8051 47.2391 28.6897C47.7798 28.5672 48.3783 28.3617 49.0344 28.0733V29.0791C48.4576 29.3387 47.8808 29.5261 47.304 29.6415C46.7271 29.764 46.0638 29.8253 45.314 29.8253C44.1243 29.8253 43.1257 29.5802 42.3181 29.0899C41.5178 28.5924 40.9122 27.893 40.5012 26.9918C40.0974 26.0905 39.8955 25.0378 39.8955 23.8337C39.8955 22.6585 40.0902 21.6022 40.4796 20.6649C40.8761 19.7275 41.4529 18.9885 42.21 18.4477C42.9743 17.8998 43.9116 17.6258 45.0219 17.6258ZM45.0111 18.5667C43.8863 18.5667 42.9743 18.9416 42.2749 19.6915C41.5827 20.4341 41.1753 21.5084 41.0528 22.9144H48.3747C48.3747 22.0564 48.2521 21.2994 48.0069 20.6432C47.7618 19.9871 47.3905 19.4788 46.893 19.1183C46.4027 18.7506 45.7754 18.5667 45.0111 18.5667ZM57.1999 17.6258C58.2021 17.6258 59.0348 17.8601 59.6982 18.3288C60.3687 18.7974 60.8662 19.4391 61.1907 20.2539C61.5223 21.0686 61.6882 22.0023 61.6882 23.055V23.8445H53.1982C53.1982 25.4596 53.5696 26.6997 54.3122 27.565C55.0621 28.4302 56.1328 28.8628 57.5243 28.8628C58.2525 28.8628 58.8834 28.8051 59.417 28.6897C59.9577 28.5672 60.5562 28.3617 61.2123 28.0733V29.0791C60.6355 29.3387 60.0587 29.5261 59.4819 29.6415C58.9051 29.764 58.2417 29.8253 57.4919 29.8253C56.3022 29.8253 55.3036 29.5802 54.4961 29.0899C53.6957 28.5924 53.0901 27.893 52.6791 26.9918C52.2753 26.0905 52.0735 25.0378 52.0735 23.8337C52.0735 22.6585 52.2681 21.6022 52.6575 20.6649C53.054 19.7275 53.6308 18.9885 54.3879 18.4477C55.1522 17.8998 56.0895 17.6258 57.1999 17.6258ZM57.189 18.5667C56.0643 18.5667 55.1522 18.9416 54.4528 19.6915C53.7606 20.4341 53.3533 21.5084 53.2307 22.9144H60.5526C60.5526 22.0564 60.43 21.2994 60.1849 20.6432C59.9397 19.9871 59.5684 19.4788 59.0709 19.1183C58.5806 18.7506 57.9533 18.5667 57.189 18.5667ZM70.1024 17.6258C71.4218 17.6258 72.4349 17.9719 73.1415 18.664C73.8481 19.3562 74.2014 20.4413 74.2014 21.9194V29.609H73.1198V21.9843C73.1198 20.8163 72.8531 19.9583 72.3195 19.4103C71.786 18.8623 71.0109 18.5883 69.9942 18.5883C68.7036 18.5883 67.7158 18.9669 67.0309 19.7239C66.3531 20.4738 66.0142 21.6094 66.0142 23.1307V29.609H64.9219V17.8529H65.8088L65.971 19.9943H66.0359C66.245 19.5545 66.5298 19.1579 66.8903 18.8046C67.258 18.4441 67.7086 18.1593 68.2422 17.9502C68.7757 17.7339 69.3958 17.6258 70.1024 17.6258ZM79.0898 12.7806V17.5609C79.0898 17.9719 79.0826 18.4225 79.0682 18.9128C79.0538 19.4031 79.0394 19.8105 79.0249 20.1349H79.0898C79.371 19.4067 79.8613 18.8046 80.5607 18.3288C81.2601 17.8529 82.1325 17.615 83.178 17.615C84.7065 17.615 85.8854 18.1305 86.7145 19.1615C87.5509 20.1926 87.9691 21.7031 87.9691 23.6931C87.9691 24.9116 87.7816 25.9823 87.4067 26.9052C87.0318 27.8209 86.473 28.5383 85.7304 29.0575C84.9949 29.5694 84.072 29.8253 82.9617 29.8253C81.9595 29.8253 81.1411 29.6162 80.5066 29.1981C79.8721 28.7727 79.4107 28.2427 79.1223 27.6082H79.0357L78.8303 29.609H77.9975V12.7806H79.0898ZM83.059 18.5667C82.1289 18.5667 81.3718 18.7686 80.7878 19.1724C80.2038 19.5689 79.7748 20.1493 79.5008 20.9136C79.2268 21.6779 79.0898 22.6116 79.0898 23.7147V23.8878C79.0898 25.5101 79.3854 26.7466 79.9767 27.5974C80.5679 28.4482 81.5269 28.8736 82.8535 28.8736C84.1658 28.8736 85.1572 28.4266 85.8277 27.5325C86.5054 26.6312 86.8443 25.3514 86.8443 23.6931C86.8443 21.9987 86.5307 20.7225 85.9034 19.8645C85.2761 18.9993 84.328 18.5667 83.059 18.5667ZM95.6587 17.6258C96.6609 17.6258 97.4937 17.8601 98.157 18.3288C98.8276 18.7974 99.3251 19.4391 99.6495 20.2539C99.9812 21.0686 100.147 22.0023 100.147 23.055V23.8445H91.6571C91.6571 25.4596 92.0284 26.6997 92.7711 27.565C93.5209 28.4302 94.5916 28.8628 95.9832 28.8628C96.7114 28.8628 97.3423 28.8051 97.8758 28.6897C98.4166 28.5672 99.015 28.3617 99.6711 28.0733V29.0791C99.0943 29.3387 98.5175 29.5261 97.9407 29.6415C97.3639 29.764 96.7006 29.8253 95.9507 29.8253C94.761 29.8253 93.7624 29.5802 92.9549 29.0899C92.1546 28.5924 91.5489 27.893 91.138 26.9918C90.7342 26.0905 90.5323 25.0378 90.5323 23.8337C90.5323 22.6585 90.727 21.6022 91.1163 20.6649C91.5129 19.7275 92.0897 18.9885 92.8468 18.4477C93.611 17.8998 94.5483 17.6258 95.6587 17.6258ZM95.6479 18.5667C94.5231 18.5667 93.611 18.9416 92.9116 19.6915C92.2195 20.4341 91.8121 21.5084 91.6895 22.9144H99.0114C99.0114 22.0564 98.8888 21.2994 98.6437 20.6432C98.3986 19.9871 98.0272 19.4788 97.5297 19.1183C97.0394 18.7506 96.4122 18.5667 95.6479 18.5667ZM104.495 29.609H103.392V12.7806H104.495V29.609ZM111.579 28.8844C111.918 28.8844 112.231 28.8592 112.52 28.8087C112.815 28.7582 113.075 28.6933 113.298 28.614V29.5225C113.068 29.6018 112.797 29.6703 112.487 29.728C112.177 29.7929 111.835 29.8253 111.46 29.8253C110.796 29.8253 110.245 29.7028 109.805 29.4576C109.365 29.2053 109.034 28.8267 108.81 28.322C108.586 27.8101 108.475 27.1612 108.475 26.3753V18.7614H106.723V18.1125L108.464 17.7772L108.842 15.0085H109.567V17.8529H113.233V18.7614H109.567V26.3104C109.567 27.154 109.722 27.7957 110.032 28.2355C110.349 28.6681 110.865 28.8844 111.579 28.8844Z" fill="#FDFDFE"/>
<path opacity="0.87" d="M116.421 17.7452V15.0106H117.233C117.568 15.0106 117.814 15.0806 117.972 15.2205C118.131 15.3584 118.21 15.5612 118.21 15.8288C118.21 16.0256 118.16 16.1807 118.061 16.2942C117.961 16.4078 117.848 16.4899 117.72 16.5406L118.441 17.7452H117.909L117.297 16.6805H116.896V17.7452H116.421ZM116.896 16.2942H117.218C117.384 16.2942 117.511 16.2527 117.598 16.1695C117.687 16.0864 117.732 15.9769 117.732 15.841C117.732 15.6889 117.692 15.5794 117.61 15.5125C117.529 15.4456 117.396 15.4121 117.212 15.4121H116.896V16.2942ZM117.285 18.6699C116.954 18.6699 116.649 18.6131 116.369 18.4995C116.092 18.386 115.849 18.2268 115.642 18.022C115.438 17.8172 115.278 17.5758 115.165 17.298C115.053 17.0182 114.998 16.714 114.998 16.3855C114.998 16.061 115.054 15.7599 115.168 15.4821C115.283 15.2043 115.445 14.9619 115.652 14.7551C115.858 14.5483 116.101 14.387 116.379 14.2715C116.656 14.1559 116.958 14.0981 117.285 14.0981C117.603 14.0981 117.9 14.1549 118.176 14.2684C118.454 14.382 118.697 14.5422 118.906 14.749C119.115 14.9538 119.278 15.1951 119.396 15.473C119.514 15.7508 119.572 16.055 119.572 16.3855C119.572 16.714 119.516 17.0182 119.402 17.298C119.29 17.5758 119.131 17.8172 118.924 18.022C118.72 18.2268 118.477 18.386 118.197 18.4995C117.92 18.6131 117.615 18.6699 117.285 18.6699ZM117.285 18.314C117.549 18.314 117.795 18.2673 118.024 18.1741C118.253 18.0787 118.455 17.9449 118.629 17.7725C118.804 17.5981 118.94 17.3933 119.037 17.1581C119.136 16.9229 119.186 16.6653 119.186 16.3855C119.186 16.1198 119.138 15.8704 119.043 15.6372C118.95 15.404 118.817 15.1982 118.645 15.0197C118.474 14.8413 118.274 14.7024 118.042 14.603C117.811 14.5016 117.559 14.4509 117.285 14.4509C117.011 14.4509 116.758 14.4986 116.525 14.5939C116.293 14.6892 116.092 14.824 115.919 14.9984C115.747 15.1708 115.613 15.3746 115.518 15.6098C115.424 15.8451 115.378 16.1036 115.378 16.3855C115.378 16.6593 115.424 16.9137 115.518 17.149C115.611 17.3822 115.743 17.586 115.913 17.7604C116.083 17.9348 116.285 18.0706 116.518 18.168C116.752 18.2653 117.007 18.314 117.285 18.314Z" fill="#FDFDFE"/>
</svg>
