<svg width="113" height="88" viewBox="0 0 113 88" fill="none" xmlns="http://www.w3.org/2000/svg">
<g clip-path="url(#clip0_918_12450)">
<path fill-rule="evenodd" clip-rule="evenodd" d="M47.6575 34.4595V86.6301C47.6575 86.6301 19.0791 74.4014 7.10465 69.2917L7.06934 69.2317V17.0928L7.10465 17.1599L47.6222 34.4983L47.6575 34.4595Z" fill="#FCD062"/>
<path fill-rule="evenodd" clip-rule="evenodd" d="M88.2111 17.0898L88.1758 17.1534L47.6582 34.4954V86.6343L88.1793 69.2888L88.2146 69.2252V17.0898H88.2111Z" fill="#F8AA3A"/>
<path fill-rule="evenodd" clip-rule="evenodd" d="M46.9797 -0.242188L7.0625 17.0963V17.1386L47.6613 34.5583L88.2812 17.0963L48.0815 -0.242188H46.9868H46.9797Z" fill="#F8B84E"/>
<path d="M74.8408 64.0541L64.7132 68.3869L54.582 72.7233M64.7132 61.4551L54.582 65.7879" stroke="#1C4D7E" stroke-width="0.90822" stroke-linecap="round" stroke-linejoin="round"/>
<path fill-rule="evenodd" clip-rule="evenodd" d="M60.1834 4.99805L59.9362 5.08633L19.6094 22.5236V47.0129L26.7672 43.4816L33.8297 54.0754L33.8227 28.6292L74.1566 11.0082L60.1834 4.99805Z" fill="#1C4D7E"/>
<path d="M87.6172 48.5625C82.4685 48.57 77.5328 50.6183 73.8921 54.259C70.2514 57.8997 68.2028 62.8357 68.1953 67.9844C68.1953 78.6911 76.9104 87.4062 87.6172 87.4062C98.3239 87.4062 107.039 78.6911 107.039 67.9844C107.039 57.2776 98.3239 48.5625 87.6172 48.5625Z" fill="#0BB07B"/>
<path fill-rule="evenodd" clip-rule="evenodd" d="M97.2792 60.9219C96.8826 60.9202 96.497 61.0519 96.1845 61.2961L83.5461 70.8479L79.3334 65.7278C79.1857 65.5488 79.0041 65.4008 78.7992 65.292C78.5942 65.1831 78.3698 65.1154 78.1388 65.0933C77.9078 65.0711 77.6747 65.0947 77.4528 65.1627C77.2309 65.2306 77.0246 65.3417 76.8456 65.4894C76.6666 65.6371 76.5184 65.8185 76.4096 66.0235C76.3007 66.2285 76.2333 66.4529 76.2112 66.6839C76.189 66.9149 76.2126 67.1482 76.2806 67.3701C76.3485 67.592 76.4595 67.7981 76.6072 67.9771L81.897 74.4007C82.1862 74.7534 82.6006 74.9804 83.0535 75.0344C83.5064 75.0884 83.9626 74.9648 84.3265 74.69L98.3103 64.1104C98.6093 63.8909 98.8315 63.5828 98.9455 63.2298C99.0594 62.8768 99.0594 62.4969 98.9452 62.1439C98.8311 61.791 98.6088 61.4831 98.3097 61.2637C98.0106 61.0443 97.6501 60.9248 97.2792 60.9219Z" fill="white"/>
</g>
<defs>
<clipPath id="clip0_918_12450">
<rect width="113" height="88" fill="white"/>
</clipPath>
</defs>
</svg>
