<svg width="113" height="113" viewBox="0 0 113 113" fill="none" xmlns="http://www.w3.org/2000/svg">
<path fill-rule="evenodd" clip-rule="evenodd" d="M47.6575 48.4595V100.63C47.6575 100.63 19.0791 88.4014 7.10465 83.2917L7.06934 83.2317V31.0928L7.10465 31.1599L47.6222 48.4983L47.6575 48.4595Z" fill="#FCD062"/>
<path fill-rule="evenodd" clip-rule="evenodd" d="M88.2111 31.0889L88.1758 31.1524L47.6582 48.4944V100.633L88.1793 83.2878L88.2146 83.2242V31.0889H88.2111Z" fill="#F8AA3A"/>
<path fill-rule="evenodd" clip-rule="evenodd" d="M46.9797 13.7578L7.0625 31.0963V31.1386L47.6613 48.5583L88.2812 31.0963L48.0815 13.7578H46.9868H46.9797Z" fill="#F8B84E"/>
<path d="M74.8418 78.0551L64.7142 82.3879L54.583 86.7243M64.7142 75.4561L54.583 79.7889" stroke="#1C4D7E" stroke-width="0.90822" stroke-linecap="round" stroke-linejoin="round"/>
<path fill-rule="evenodd" clip-rule="evenodd" d="M60.1834 18.998L59.9362 19.0863L19.6094 36.5236V61.0129L26.7672 57.4816L33.8297 68.0754L33.8227 42.6292L74.1566 25.0082L60.1834 18.998Z" fill="#374F68"/>
<path d="M87.6172 63.5625C82.4685 63.57 77.5328 65.6183 73.8921 69.259C70.2514 72.8997 68.2028 77.8357 68.1953 82.9844C68.1953 93.6911 76.9104 102.406 87.6172 102.406C98.3239 102.406 107.039 93.6911 107.039 82.9844C107.039 72.2812 98.3239 63.5625 87.6172 63.5625Z" fill="#F05542"/>
<path fill-rule="evenodd" clip-rule="evenodd" d="M80.5517 74.1807C80.2002 74.1807 79.8566 74.2856 79.5651 74.482C79.2736 74.6785 79.0473 74.9575 78.9153 75.2833C78.7833 75.6092 78.7516 75.967 78.8242 76.311C78.8968 76.655 79.0704 76.9694 79.3228 77.2141L93.4125 91.2542C93.7445 91.5848 94.1943 91.7703 94.6628 91.7693C95.1313 91.7683 95.5803 91.581 95.9109 91.249C96.2415 90.917 96.4266 90.4674 96.4256 89.9989C96.4246 89.5304 96.2376 89.0812 95.9056 88.7506L81.8194 74.7105C81.6538 74.5415 81.4559 74.4075 81.2376 74.3165C81.0192 74.2255 80.7883 74.1793 80.5517 74.1807Z" fill="#E9EDED"/>
<path fill-rule="evenodd" clip-rule="evenodd" d="M94.6091 74.1562C94.1507 74.1683 93.7151 74.358 93.3943 74.6855L79.3505 88.7756C79.1819 88.9385 79.0474 89.1331 78.9549 89.3485C78.8623 89.5639 78.8136 89.7956 78.8116 90.03C78.8096 90.2645 78.8542 90.4971 78.943 90.7141C79.0318 90.9311 79.1629 91.1281 79.3286 91.2939C79.4944 91.4597 79.6916 91.5909 79.9086 91.6797C80.1255 91.7685 80.3581 91.8132 80.5925 91.8112C80.8269 91.8091 81.0586 91.7602 81.274 91.6676C81.4894 91.5751 81.6842 91.4405 81.8471 91.2719L95.898 77.1822C96.1521 76.9334 96.3252 76.6138 96.3945 76.265C96.4638 75.9161 96.4262 75.5545 96.2865 75.2274C96.1468 74.9003 95.9116 74.6228 95.6116 74.4317C95.3117 74.2405 94.961 74.1447 94.6055 74.1562H94.6091Z" fill="#E9EDED"/>
</svg>
