<svg width="74" height="68" viewBox="0 0 74 68" fill="none" xmlns="http://www.w3.org/2000/svg">
<g clip-path="url(#clip0_992_11643)">
<path d="M27.0996 67.4051L23.6742 54.007L11.5625 60.6844L24.0355 31.8359L39.5727 38.5566L27.0996 67.4051Z" fill="#374F68"/>
<path d="M44.5883 67.4051L48.0137 54.007L60.1254 60.6844L47.6523 31.8359L32.1152 38.5566L44.5883 67.4051Z" fill="#374F68" fill-opacity="0.9"/>
<path d="M57.943 21.4571C57.943 23.6684 54.7777 25.3594 54.1273 27.3684C53.448 29.4352 55.009 32.6727 53.7516 34.3926C52.4797 36.1415 48.9242 35.6501 47.1898 36.9219C45.4699 38.1794 44.834 41.7204 42.7527 42.3852C40.7582 43.0356 38.1711 40.5641 35.9598 40.5641C33.7484 40.5641 31.1613 43.0356 29.1668 42.3852C27.1 41.7059 26.4641 38.1794 24.7297 36.9219C22.9809 35.6501 19.4254 36.1415 18.168 34.3926C16.9105 32.6727 18.457 29.4352 17.7922 27.3684C17.1418 25.3739 13.9766 23.6829 13.9766 21.4571C13.9766 19.2458 17.1418 17.5547 17.7922 15.5458C18.4715 13.479 16.9105 10.2415 18.168 8.52154C19.4398 6.77271 22.9953 7.26412 24.7297 5.99225C26.4496 4.73482 27.0855 1.19381 29.1668 0.528965C31.1613 -0.121425 33.7484 2.35006 35.9598 2.35006C38.1711 2.35006 40.7582 -0.121425 42.7527 0.528965C44.8195 1.20826 45.4555 4.73482 47.1898 5.99225C48.9387 7.26412 52.4941 6.77271 53.7516 8.52154C55.009 10.2415 53.4625 13.479 54.1273 15.5458C54.7777 17.5547 57.943 19.2458 57.943 21.4571Z" fill="#FCD062"/>
<path d="M35.9451 33.5406C42.6183 33.5406 48.0279 28.131 48.0279 21.4578C48.0279 14.7847 42.6183 9.375 35.9451 9.375C29.272 9.375 23.8623 14.7847 23.8623 21.4578C23.8623 28.131 29.272 33.5406 35.9451 33.5406Z" fill="#F8AA3A"/>
</g>
<defs>
<clipPath id="clip0_992_11643">
<rect width="74" height="67.7465" fill="white"/>
</clipPath>
</defs>
</svg>
