<svg width="75" height="60" viewBox="0 0 75 60" fill="none" xmlns="http://www.w3.org/2000/svg">
<g clip-path="url(#clip0_992_11631)">
<path d="M73.4375 53.2286C73.4353 54.2717 73.1721 55.2976 72.6718 56.2129C72.1389 57.1615 71.363 57.951 70.4238 58.5002C69.4846 59.0495 68.4161 59.3386 67.3281 59.3379H7.67184C6.58852 59.3407 5.52404 59.0546 4.58805 58.5092C3.65206 57.9637 2.8784 57.1786 2.34676 56.2347C1.81512 55.2908 1.54472 54.2223 1.56341 53.1391C1.5821 52.0559 1.8892 50.9973 2.45309 50.0723L30.3906 3.97857C31.1076 2.78963 32.111 1.79922 33.3092 1.09778C34.5074 0.396327 35.8622 0.00617663 37.25 -0.0370587H37.5C38.9315 -0.0420752 40.3398 0.325512 41.5863 1.02957C42.8328 1.73363 43.8746 2.74993 44.6093 3.97857L72.5468 50.0723C73.1266 51.0233 73.4346 52.1149 73.4375 53.2286Z" fill="#F8AA3A"/>
<path d="M73.4375 53.2286C73.4353 54.2717 73.1721 55.2976 72.6718 56.2129H13.9218C12.8385 56.2157 11.774 55.9296 10.8381 55.3842C9.90206 54.8387 9.1284 54.0536 8.59676 53.1097C8.06512 52.1658 7.79472 51.0972 7.81341 50.0141C7.8321 48.9309 8.1392 47.8723 8.70309 46.9473L36.6406 0.853567C36.8256 0.544688 37.0291 0.247271 37.25 -0.0370587H37.5C38.9315 -0.0420752 40.3398 0.325512 41.5863 1.02957C42.8328 1.73363 43.8746 2.74993 44.6093 3.97857L72.5468 50.0723C73.1266 51.0233 73.4346 52.1149 73.4375 53.2286Z" fill="#F8AA3A"/>
<path d="M67.1875 53.0888H7.8125L35.1406 7.55753C35.3685 7.17133 35.688 6.84711 36.0707 6.61344C36.4535 6.37977 36.8878 6.24382 37.3355 6.21758C37.7832 6.19133 38.2304 6.2756 38.6379 6.46295C39.0453 6.6503 39.4004 6.93498 39.6719 7.29191C39.748 7.36998 39.8113 7.45963 39.8594 7.55753L65.3125 49.9638L67.1875 53.0888Z" fill="#FCD062"/>
<path d="M39.7031 7.29199L22.5781 35.7607C21.723 37.184 21.2612 38.8089 21.24 40.4691C21.2188 42.1294 21.6389 43.7655 22.4574 45.2102C23.2759 46.6548 24.4634 47.8562 25.8984 48.6914C27.3335 49.5267 28.9646 49.9658 30.625 49.9639H65.3125L39.7031 7.29199ZM34.375 48.4014C33.7569 48.4014 33.1527 48.2181 32.6388 47.8747C32.1249 47.5313 31.7244 47.0433 31.4879 46.4723C31.2513 45.9012 31.1894 45.2729 31.31 44.6667C31.4306 44.0605 31.7282 43.5037 32.1653 43.0667C32.6023 42.6296 33.1591 42.332 33.7653 42.2114C34.3715 42.0908 34.9998 42.1527 35.5709 42.3892C36.1419 42.6258 36.6299 43.0263 36.9733 43.5402C37.3167 44.0541 37.5 44.6583 37.5 45.2764C37.5 46.1052 37.1707 46.9 36.5847 47.4861C35.9986 48.0721 35.2038 48.4014 34.375 48.4014ZM37.5 32.7764C37.5 33.6052 37.1707 34.4 36.5847 34.9861C35.9986 35.5721 35.2038 35.9014 34.375 35.9014C33.5462 35.9014 32.7513 35.5721 32.1653 34.9861C31.5792 34.4 31.25 33.6052 31.25 32.7764V23.4014C31.25 22.5726 31.5792 21.7777 32.1653 21.1917C32.7513 20.6056 33.5462 20.2764 34.375 20.2764C35.2038 20.2764 35.9986 20.6056 36.5847 21.1917C37.1707 21.7777 37.5 22.5726 37.5 23.4014V32.7764Z" fill="#FCD062"/>
<path d="M40.625 21.8379C40.625 20.112 39.2259 18.7129 37.5 18.7129C35.7741 18.7129 34.375 20.112 34.375 21.8379V31.2129C34.375 32.9388 35.7741 34.3379 37.5 34.3379C39.2259 34.3379 40.625 32.9388 40.625 31.2129V21.8379Z" fill="#374F68"/>
<path d="M37.5 46.8389C39.2259 46.8389 40.625 45.4398 40.625 43.7139C40.625 41.988 39.2259 40.5889 37.5 40.5889C35.7741 40.5889 34.375 41.988 34.375 43.7139C34.375 45.4398 35.7741 46.8389 37.5 46.8389Z" fill="#374F68"/>
</g>
<defs>
<clipPath id="clip0_992_11631">
<rect width="75" height="59.3023" fill="white"/>
</clipPath>
</defs>
</svg>
